<?xml version="1.0" encoding="UTF-8"?>
<svg id="Camada_2" data-name="Camada 2" xmlns="http://www.w3.org/2000/svg" viewBox="0 0 486.49 322.94">
  <defs>
    <style>
      .cls-1 {
        fill: #936735;
      }

      .cls-1, .cls-2, .cls-3, .cls-4 {
        stroke-width: 0px;
      }

      .cls-2 {
        fill: #f4f2f3;
      }

      .cls-3 {
        fill: none;
      }

      .cls-4 {
        fill: #9d1d1b;
      }
    </style>
  </defs>
  <g id="Camada_1-2" data-name="Camada 1">
    <g>
      <path class="cls-3" d="M156.41,299.66c-.86-.3-1.7-.41-2.48-.36.79-.05,1.63.06,2.48.36Z"/>
      <path class="cls-3" d="M151.72,309.54c-2.85-2.52-3.26-5.28-2.31-7.3-.95,2.02-.54,4.78,2.31,7.3.73,1.13,2.26,2.14,3.53,3.22-1.27-1.08-2.79-2.09-3.53-3.22Z"/>
      <path class="cls-3" d="M155.62,318.48c-1.11.57-2.08.09-3.05-.42.97.51,1.94.99,3.05.42Z"/>
      <path class="cls-3" d="M157.01,317.1c.24-.53.32-1.02.26-1.48.06.46-.02.95-.26,1.48Z"/>
      <path class="cls-3" d="M137.08,309.03c2.78.67,4.17,3.04,4.12,5.39.04-2.34-1.34-4.72-4.12-5.39Z"/>
      <path class="cls-3" d="M139.06,321.62c3.03-1.42,4.56-4.37,4.58-7.32-.03,2.94-1.55,5.89-4.58,7.32Z"/>
      <path class="cls-3" d="M291.45,111.15c-3.26,2.2-6.83,3.84-10.56,4.68,3.74-.84,7.3-2.48,10.56-4.68Z"/>
      <path class="cls-3" d="M167.93,322.22s0,0,0,0c-.05-.02-.1-.06-.15-.09.05.03.09.06.14.09Z"/>
      <path class="cls-3" d="M182.83,314.32c0,.28.01.55.03.82-.02-.27-.04-.54-.03-.82h0Z"/>
      <path class="cls-3" d="M189.51,321.96c4.4.6,9.33-1.99,9.2-7.75.14,5.76-4.79,8.35-9.2,7.75Z"/>
      <path class="cls-3" d="M190.58,308.7c-.21,0-.41.02-.61.04.2-.02.4-.04.61-.04h0Z"/>
      <path class="cls-3" d="M138.07,306.55c-1.69-.51-3.75-.58-6.2,0,2.45-.57,4.51-.5,6.2,0Z"/>
      <path class="cls-3" d="M158.19,310.9c-.75-1.11-2.2-2.09-3.43-3.16,1.23,1.06,2.68,2.05,3.43,3.16,4.35,3.85,3.22,7.83.28,9.87,2.93-2.04,4.06-6.02-.28-9.87Z"/>
      <path class="cls-3" d="M149.46,317.56c-.48.24-.98.69-1.52,1.44.54-.74,1.04-1.19,1.52-1.44Z"/>
      <path class="cls-3" d="M166.85,310.88c-.15,3.15-.46,7.01-.02,9.34-.44-2.33-.14-6.19.02-9.34Z"/>
      <path class="cls-3" d="M138.88,163.75c-2.4.06-4.79.17-7.18-.06-.02,0-.04,0-.06,0,.02,0,.04,0,.06,0,2.39.23,4.78.12,7.18.06Z"/>
      <path class="cls-3" d="M167.79,216.32c-.79-5.71-3.87-10.65-8.33-15.04-.01-.01-.02-.02-.03-.04.01.01.02.02.03.04,4.46,4.39,7.54,9.33,8.33,15.04Z"/>
      <path class="cls-3" d="M138.42,243.13c3.96,0,8.16.04,12.11-.7-3.95.73-8.15.7-12.11.7Z"/>
      <path class="cls-3" d="M128.05,165.2c-.35,1.29.11,3.17.21,4.84-.1-1.66-.56-3.54-.21-4.84Z"/>
      <path class="cls-3" d="M199.8,130.87c.51.02.97-.18,1.18-.66-.21.48-.67.68-1.18.66Z"/>
      <path class="cls-3" d="M197.8,129.49s-.04-.09-.06-.14c-.17-.36-.25-.84-.26-1.31,0,.47.09.95.26,1.31.02.05.04.09.06.14Z"/>
      <path class="cls-3" d="M159.8,192.66c-.82,1.87-1.68,3.71-1.68,5.43.02-1.7.87-3.55,1.68-5.43Z"/>
      <path class="cls-3" d="M127.78,110.35c-1.31,2.76-1.78,6.14-1.07,10.21-.71-4.07-.25-7.45,1.07-10.21Z"/>
      <path class="cls-3" d="M137.92,209.3c4.56-2.67,9.37-9.16,12.01-16.01-2.64,6.85-7.45,13.34-12.01,16.01Z"/>
      <path class="cls-3" d="M81.72,304.37c.15-2.03.17-3.98-.86-4.65,1.03.67,1.01,2.62.86,4.65Z"/>
      <path class="cls-3" d="M109.7,307.94c-1.21.74-2.81.64-4.12.71,1.31-.07,2.91.03,4.12-.71Z"/>
      <path class="cls-3" d="M138.18,226.08c-.95,2.59-1.16,5.44-.13,8.75-1.02-3.31-.82-6.16.13-8.75Z"/>
      <path class="cls-3" d="M144.14,217.45c2.14-2.29,4.44-4.54,6.36-6.96-1.93,2.41-4.23,4.66-6.36,6.96Z"/>
      <path class="cls-3" d="M161.05,237.09c.21-.22.42-.43.62-.67.65-.8,1.56-1.62,2.27-2.51-.71.89-1.62,1.71-2.27,2.51-.2.24-.41.45-.62.67Z"/>
      <path class="cls-3" d="M103.54,312.35c-.55-1.79-.4-2.7.14-3.18-.55.48-.69,1.39-.14,3.18Z"/>
      <path class="cls-3" d="M151.48,179.55c-1.2-4.38-4.7-7.55-11.6-7.89-1.02.05-2.16.24-2.71.85.55-.61,1.69-.8,2.71-.85,6.9.35,10.39,3.51,11.6,7.89Z"/>
      <path class="cls-3" d="M185.77,312.28c-1.06,3.26.57,7.56,4.93,7.46-4.36.1-5.99-4.2-4.93-7.46Z"/>
      <path class="cls-3" d="M53.44,238.91c.07,2.64-.76,3.62-2.19,3.97,1.43-.35,2.26-1.32,2.19-3.97.37-13.57-.55-27.28-.67-40.88.12,13.6,1.04,27.32.67,40.88Z"/>
      <path class="cls-3" d="M99.01,192.17c-.91,1.02-1.27,2.45-1.31,4.12.04-1.67.4-3.1,1.31-4.12Z"/>
      <path class="cls-3" d="M43.74,173.08c-.01,22.14.14,43.88-.07,65.97.21-22.09.06-43.83.07-65.97Z"/>
      <path class="cls-3" d="M213.94,241.56c-1.53-1.53-1.93-4.28-2.21-7.22.28,2.94.67,5.69,2.21,7.22Z"/>
      <path class="cls-3" d="M100.31,213.1c.07-2.54-.73-5.79-1.47-9.04.73,3.25,1.54,6.51,1.47,9.04Z"/>
      <path class="cls-3" d="M42.55,163.58c-3.38,0-6.75-.02-10.13-.02-.1-.02-.18-.02-.28-.03.09.01.17.01.27.03,3.38,0,6.75.01,10.13.02Z"/>
      <path class="cls-3" d="M30.94,163.55c-1.63.44-1.92,2.61-1.76,4.9-.16-2.29.13-4.46,1.76-4.9Z"/>
      <path class="cls-3" d="M52.76,193.71c.02-3.17.1-6.33.26-9.48-.16,3.15-.24,6.31-.26,9.48Z"/>
      <path class="cls-3" d="M195.33,229.18c2.26-2.67,5.03-4.89,7.79-5.69-2.76.8-5.54,3.02-7.79,5.69Z"/>
      <path class="cls-3" d="M230.04,131.21c-.45.04-.87.13-1.27.27.4-.14.82-.23,1.27-.27Z"/>
      <path class="cls-3" d="M216.52,130.05c-.82-.21-1.62-.38-2.31-1.14.69.76,1.49.93,2.31,1.14Z"/>
      <path class="cls-3" d="M210.28,193.54c2.98-2.02,2.9-5.9,1.97-10.25.93,4.34,1.01,8.22-1.97,10.25Z"/>
      <path class="cls-3" d="M188.55,241.88c-.5.33-1.08.53-1.7.65.63-.12,1.2-.32,1.7-.65Z"/>
      <path class="cls-3" d="M209.06,167.25c-.51,3.34,1.11,8.14,2.38,12.8-1.27-4.67-2.89-9.47-2.38-12.8.07-2.74-1.37-3.59-3.31-3.8,1.94.22,3.38,1.07,3.31,3.8Z"/>
      <path class="cls-3" d="M198.13,163.23s.09.02.14.03c-.04-.01-.09-.02-.14-.03-1.42-.19-2.47-.02-3.22.55.74-.57,1.79-.74,3.22-.55Z"/>
      <path class="cls-3" d="M101.85,72.25c-.5-.04-.99-.08-1.49-.07-15.93,0-31.85.16-47.77.24,15.92-.08,31.84-.24,47.77-.24.44.04.95.05,1.49.07Z"/>
      <path class="cls-3" d="M106.46,73.78c-.29-.62-.84-1.09-1.68-1.18.74.21,1.36.57,1.68,1.18Z"/>
      <path class="cls-3" d="M107.09,242.51s0,0,0,0c1.51.07,3.06.43,4.61.39-1.55.04-3.09-.33-4.61-.39,0,0,0,0,0,0Z"/>
      <path class="cls-3" d="M81.06,77.45c7.7-.03,15.41-.08,23.11-.15.59.13,1.08.03,1.47-.21-.42.16-.92.2-1.47.21-7.7.07-15.41.12-23.11.15Z"/>
      <path class="cls-3" d="M209.09,308.62c-.81-.27-1.86-.26-3.15.22,1.29-.48,2.34-.49,3.15-.22Z"/>
      <path class="cls-3" d="M209.08,314.51c1.3-.42,1.97-1.59,2.01-2.8-.05,1.2-.72,2.38-2.01,2.8Z"/>
      <path class="cls-3" d="M213.53,310.24c-.54-2-2.62-3.7-6.04-3.96,3.41.26,5.5,1.96,6.04,3.96Z"/>
      <path class="cls-3" d="M188.2,271.05c6.71-.02,13.42-.09,20.13-.1.02,0,.04,0,.05,0-.02,0-.04,0-.05,0-6.71.01-13.42.08-20.13.1Z"/>
      <path class="cls-3" d="M208.88,316.56c-.86.29-1.84.52-2.95.65,1.11-.14,2.09-.36,2.95-.65Z"/>
      <path class="cls-3" d="M82.11,239.96c1.89-2.66,2.87-6.7,5.22-10.18-.51.65-.91,1.27-1.17,1.85-1.92,3.09-2.74,6.17-4.05,8.33Z"/>
      <path class="cls-3" d="M93.91,224.41c1.31-.53,2.82-.92,4.57-1.16.33-.09.63-.12.92-.14-1.62-.26-3.57.3-5.49,1.29Z"/>
      <path class="cls-3" d="M211.37,270.84c1.7-.23,3.12-.95,2.82-3.14.28,2.18-1.12,2.9-2.82,3.14Z"/>
      <path class="cls-3" d="M93.18,164.12c-.33-.09-.67-.21-1.02-.37-.59-.28-1.14-.46-1.64-.53.51.08,1.05.25,1.64.53.35.16.69.28,1.02.37Z"/>
      <path class="cls-3" d="M106.5,242.2c-.93-.78-1.54-2.84-1.99-5.25.37,2.44.91,4.45,1.99,5.25Z"/>
      <path class="cls-3" d="M100.82,164.28c-2.52-.91-4.75.54-7.47-.11,2.72.66,4.94-.8,7.47.11Z"/>
      <path class="cls-3" d="M134.71,319.64c.79.07,1.51.03,2.15-.1-.65.12-1.36.17-2.15.1Z"/>
      <path class="cls-3" d="M232.27,87.08c-.52.44-1.04.87-1.58,1.24.53-.37,1.05-.8,1.58-1.24h0Z"/>
      <path class="cls-3" d="M218.84,115.71c.31-.21.69-.33,1.07-.44-.39.11-.76.23-1.07.44Z"/>
      <path class="cls-3" d="M221.84,114.11c.27-.39.47-.92.58-1.67-.11.75-.31,1.28-.58,1.67Z"/>
      <path class="cls-3" d="M176.95,76.75h0s0,0,.01,0c0,0,0,0-.01,0Z"/>
      <path class="cls-3" d="M176.78,76.73c-.08-.02-.16-.05-.23-.04.07,0,.15.03.23.04h0Z"/>
      <path class="cls-3" d="M156.95,59.59c.33,7.5,1.55,14.33,4.28,18.2-2.44-5.83-3.77-11.96-4.28-18.2Z"/>
      <path class="cls-3" d="M230.47,69.13h0c-.05.95.04,1.75.26,2.44-.21-.68-.31-1.49-.26-2.44Z"/>
      <path class="cls-3" d="M213.34,113.01h0c-.17-.45-.33-.88-.48-1.29.15.41.31.83.48,1.29Z"/>
      <path class="cls-3" d="M156.46,145.94s0,0,0,0c.21.32.42.64.63.96-.21-.32-.42-.64-.63-.96.09-.25.19-.49.28-.74-.09.25-.19.49-.28.74,0,0,0,0,0,0Z"/>
      <path class="cls-3" d="M140.91,133.23h0c.6-2.03-.81-3.21-1.91-4.59,1.1,1.38,2.51,2.56,1.91,4.59Z"/>
      <path class="cls-3" d="M205.03,111.84c1.63.31,2.58.8,3.11,1.4-.53-.6-1.48-1.09-3.11-1.4Z"/>
      <path class="cls-3" d="M137.08,111.14c-.21.37-.4.74-.58,1.11.18-.37.37-.74.58-1.11,7.31-5.18,17.01-2.81,25.45-.66-8.43-2.15-18.14-4.52-25.45.66Z"/>
      <path class="cls-3" d="M193.75,122.18c-.84-.02-1.49-.28-2.02-.67.53.38,1.18.64,2.02.67Z"/>
      <path class="cls-3" d="M153.83,146.81c-2.96-.21-7.68-2.17-11.29-4.28,3.61,2.11,8.33,4.07,11.29,4.28Z"/>
      <path class="cls-3" d="M126.71,120.59h0c.56.98,1.58.58,2.27,1.02-.7-.44-1.72-.04-2.27-1.02Z"/>
      <path class="cls-3" d="M212.14,69.87h0c.15-1.28.3-2.52.45-3.76-.15,1.23-.3,2.48-.45,3.76Z"/>
      <path class="cls-3" d="M348.44,172.64c-2.22-.65-4.7-.94-7.44-.77,2.75-.17,5.23.12,7.44.77Z"/>
      <path class="cls-3" d="M216.09,98.07c-.49-.32-.75-.87-.55-1.65-.31.56-.17,1.41.55,1.65Z"/>
      <path class="cls-3" d="M163.91,25.1c-.13,0-.27-.06-.42-.13.15.07.29.12.42.13Z"/>
      <path class="cls-3" d="M358.34,223.51c6.79-4.49,11.15-11.98,12.92-20.18-1.77,8.2-6.13,15.69-12.92,20.18Z"/>
      <path class="cls-3" d="M332.02,242.31c1.03,1.48,3.44.45,8.38-.22-4.94.65-7.35,1.69-8.38.22Z"/>
      <path class="cls-3" d="M331.47,234.74c-.01-11.62.03-23.23-.05-34.85.08,11.61.03,23.23.05,34.85-.2,4-.17,6.19.39,7.31-.56-1.12-.59-3.31-.39-7.31Z"/>
      <path class="cls-3" d="M340.92,204.98c-.34,5.86-.62,11.45.54,14.55-1.15-3.07-.88-8.67-.54-14.55Z"/>
      <path class="cls-3" d="M175.19,114.66c1.82.76,3.63,1.3,5.44,1.1-1.81.2-3.61-.34-5.44-1.1Z"/>
      <path class="cls-3" d="M137.09,71.52c-.51-1.87-.91-3.75-1.23-5.65.32,1.9.72,3.78,1.23,5.65Z"/>
      <path class="cls-3" d="M348.61,218.39c9.42-3.37,14.18-13.66,14.07-23.72.11,10.06-4.65,20.35-14.07,23.72Z"/>
      <path class="cls-3" d="M200.2,110.93c.64-1.98,1.31-3.85,2.5-4.92-1.18,1.07-1.85,2.93-2.5,4.92Z"/>
      <path class="cls-3" d="M357.95,167.18c5.97,3.4,10.01,8.96,12.21,15.35-2.2-6.4-6.24-11.95-12.21-15.35-2.47-1.36-4.99-2.18-7.55-2.64,2.56.46,5.08,1.27,7.55,2.64Z"/>
      <path class="cls-3" d="M193.95,118.93c1.54-.12,2.65-.8,3.49-1.8-.85,1-1.95,1.67-3.49,1.8Z"/>
      <path class="cls-3" d="M337.26,183.66c1.74.59,2.78,2.24,3.37,4.56-.59-2.34-1.62-4-3.37-4.56Z"/>
      <path class="cls-3" d="M135.99,39.85c-.16.19-.3.4-.4.67.1-.27.24-.48.4-.67h0Z"/>
      <path class="cls-3" d="M135.46,42.82c-.02-.15-.02-.28-.03-.42.01.14.01.27.03.42-.06.66-.12,1.32-.17,1.98h0c.05-.66.11-1.32.17-1.98Z"/>
      <path class="cls-3" d="M172.49,95.17c.17.1.35.22.54.37h0s0,0,0,0c-.18-.14-.36-.27-.54-.37Z"/>
      <path class="cls-3" d="M135.05,48.14c-.05,1-.1,2-.12,3,.03-1,.07-2,.12-3h0Z"/>
      <path class="cls-3" d="M164.65,23.49c-.29-.1-.48-.25-.59-.42.11.17.3.32.59.42Z"/>
      <path class="cls-3" d="M164.06,22.21c.2-.33.6-.51.98-.2-.38-.31-.78-.13-.98.2Z"/>
      <path class="cls-3" d="M213.5,69.54c1.76-.24,3.79.13,4.47,1.19-.68-1.06-2.71-1.42-4.47-1.19Z"/>
      <path class="cls-3" d="M213.04,62.44c-.15,1.22-.29,2.44-.44,3.68.15-1.23.3-2.46.44-3.68h0Z"/>
      <path class="cls-3" d="M219.12,97.6c-.38.37-.84.6-1.32.71.49-.06.94-.27,1.32-.71Z"/>
      <path class="cls-3" d="M193.35,115.99c-.46-2.19-1.21-4.22-3.92-4.5-4.7-1.81-9.21-3.83-13.84-5.6,4.62,1.76,9.14,3.79,13.84,5.6,2.72.28,3.47,2.31,3.92,4.5Z"/>
      <path class="cls-3" d="M159.06,101.41c-4.31-1.11-9.3-1.48-14.06-.96,4.76-.53,9.75-.15,14.06.96Z"/>
      <path class="cls-3" d="M186.98,116.55c-.25.09-.4.2-.49.32.09-.12.24-.23.49-.32,1.56.08,2.23,1.48,3.04,2.86-.81-1.39-1.48-2.79-3.04-2.87Z"/>
      <path class="cls-3" d="M206.49,98.3c-.12,0-.24.01-.38.04-.19.04-.37.09-.52.16.16-.07.33-.12.52-.16.14-.03.26-.04.38-.04Z"/>
      <path class="cls-3" d="M218.74,84.5c.03.13.07.25.13.37.04.09.09.17.14.26-.05-.09-.09-.17-.14-.26-.06-.12-.1-.24-.13-.37Z"/>
      <path class="cls-3" d="M175.79,77.26c-2.05,1.33-5.07,3.1-7.9,3.71l.64-.05c2.07-.38,4.47-1.54,7.26-3.66Z"/>
      <path class="cls-3" d="M218.05,117.1s0,0,0,0c4.55.24,5.82-.38,7.35-4.75-1.52,4.37-2.8,4.99-7.35,4.74Z"/>
      <path class="cls-3" d="M208.81,118.65c-.48-.57-.32-1.42-.18-2.34-.15.92-.31,1.78.18,2.34Z"/>
      <path class="cls-3" d="M176.36,77.69c-.2-.14-.39-.28-.58-.43.2.15.38.29.58.44h0Z"/>
      <path class="cls-3" d="M236.05,49.11c2.82-1.91,4.2-5.93,4.78-10.78-.58,4.84-1.95,8.86-4.78,10.78Z"/>
      <path class="cls-3" d="M211.1,118.88c-.11.2-.37.35-.88.4-.08-.01-.15-.03-.23-.04.07.01.14.03.23.04.51-.05.76-.19.88-.4Z"/>
      <path class="cls-3" d="M157.37,148.32s-.01-.01-.01-.03c0,.02,0,.03.01.03,9.04,1.65,17.6,4.3,26.15-1.9-8.56,6.2-17.11,3.55-26.15,1.9Z"/>
      <path class="cls-3" d="M213.32,123.34h-.04s-.01,0-.02,0c.02,0,.05,0,.05,0Z"/>
      <path class="cls-3" d="M228.41,68.92c-.74.58-1.44,1.78-2.08,3.13.64-1.35,1.34-2.55,2.08-3.13Z"/>
      <path class="cls-3" d="M206.21,32.9c-2.06,5.03-4.55,9.92-6.37,15.03h0c1.83-5.11,4.31-10,6.37-15.03Z"/>
      <path class="cls-3" d="M240.7,21.55c-.34-4.29-.77-8.19-.9-10.92-.26-1.59-.75-2.97-1.43-4.18.68,1.21,1.17,2.59,1.43,4.18.13,2.74.55,6.63.9,10.92Z"/>
      <path class="cls-3" d="M176.95,76.75c.07.05.14.1.21.14h0c-.07-.05-.14-.09-.21-.14Z"/>
      <path class="cls-3" d="M258.45,311.2c-.2-3.07,1.13-6.22,4.22-7.52-3.09,1.3-4.42,4.45-4.22,7.52Z"/>
      <path class="cls-3" d="M272.12,316.4c.41,1.92.08,3.35-.73,4.34.81-.98,1.14-2.41.73-4.34,0,0,0,0,0,0Z"/>
      <path class="cls-3" d="M278.96,228.58c.42-1.52.72-2.87.74-3.88-.02,1.01-.32,2.36-.74,3.88Z"/>
      <path class="cls-3" d="M270.72,303.92s0,0,0,0c1.27-4.29-2.66-5.12-6.74-4.18,4.08-.93,8.01-.11,6.74,4.18Z"/>
      <path class="cls-3" d="M269.36,317.83c-2.1.84-3.92.96-5.45.59,1.53.37,3.35.24,5.45-.59Z"/>
      <path class="cls-3" d="M232.22,261.24c2.43-2.96,4.91-5.64,6.75-8.69-1.84,3.06-4.32,5.73-6.75,8.69-3.31,3.88-5.49,10.08-4.73,15.19-.76-5.11,1.42-11.31,4.73-15.19Z"/>
      <path class="cls-3" d="M350.09,312.6c-.3.59-.43,1.29-.46,2.04.04-.75.16-1.45.46-2.04Z"/>
      <path class="cls-3" d="M241.03,248c.37-1.2.63-2.48.75-3.86-.12,1.38-.38,2.66-.75,3.86Z"/>
      <path class="cls-3" d="M359.51,317.11c.21-3.49.49-7.53-.2-9.51.69,1.98.41,6.02.2,9.51Z"/>
      <path class="cls-3" d="M307.71,315.86c.33-.62.49-1.35.54-2.12-.06.77-.21,1.5-.54,2.12Z"/>
      <path class="cls-3" d="M285.81,306.31s-.05,0-.07,0c.03,0,.05,0,.07,0h0Z"/>
      <path class="cls-3" d="M279.03,309.84c-2.75,4.74-.58,12.53,6.62,12.41-7.21.11-9.37-7.68-6.62-12.41Z"/>
      <path class="cls-3" d="M285.34,308.72c2.81-.25,4.61,1.54,5.27,3.75-.65-2.21-2.45-4-5.27-3.75-6.94.35-6.6,11.2.38,11.03-6.98.17-7.32-10.68-.38-11.03Z"/>
      <path class="cls-3" d="M300.41,72.83c-3.3-4.02-6.65-9.95-7.23-15.33.58,5.38,3.93,11.31,7.23,15.33Z"/>
      <path class="cls-3" d="M234.77,284.38c.23.8.47,1.59.74,2.43-.27-.84-.51-1.62-.74-2.43Z"/>
      <path class="cls-3" d="M284.22,242.16c1.02-.51,1.73-1.31,1.78-2.36-.06,1.05-.77,1.85-1.78,2.36Z"/>
      <path class="cls-3" d="M276.51,240.15c.13.95.51,1.66,1.24,2.01.05.02.1.04.15.07-.05-.02-.1-.04-.15-.07-.73-.36-1.11-1.07-1.24-2.01Z"/>
      <path class="cls-3" d="M289.85,165.83c-.13.31-.24.65-.32,1.03-1.54,8.49-3.11,16.98-4.62,25.48,1.51-8.5,3.08-16.99,4.62-25.47.08-.38.19-.72.32-1.03Z"/>
      <path class="cls-3" d="M297.35,224.23c1.74-.74,3.7-1.11,5.94-1.01,0,0,0,0,.01,0,0,0,0,0,0,0-2.24-.1-4.2.26-5.94,1.01Z"/>
      <path class="cls-3" d="M315.28,236.84s.05-.07.09-.1c0,0,0,0,0,0,.32-1.16.25-2.19-.17-3.17.46,1.29.23,2.52.09,3.27Z"/>
      <path class="cls-3" d="M303.92,163.54c-2.36.5-5.83-.27-8.79-.26,2.96,0,6.42.77,8.79.26Z"/>
      <path class="cls-3" d="M255.37,182.45c.26.44.69.75,1.4.94-.71-.19-1.15-.5-1.4-.94Z"/>
      <path class="cls-3" d="M262.79,183.46c1.56-.24,1.95-3.14,1.95-6.66,0,3.52-.4,6.42-1.95,6.66Z"/>
      <path class="cls-3" d="M243.01,223.8c-5.43-10.86-5.33-28.9-.19-40.07-5.16,11.17-5.26,29.21.19,40.07Z"/>
      <path class="cls-3" d="M367.23,308.15c-.19-1.1-.56-1.8-1.22-1.8,0,0,0,0,0,0,.65.02,1.02.72,1.22,1.8Z"/>
      <path class="cls-3" d="M254.98,177.73c-.04-1.11-.17-2.39-.52-3.84.35,1.45.48,2.73.52,3.84Z"/>
      <path class="cls-3" d="M298.05,213.8c.38.14.74.19,1.09.16-.35.02-.71-.02-1.09-.16,0,0,0,0,0,0Z"/>
      <path class="cls-3" d="M255.3,315.04c1.69,3.82,5.71,6.35,9.41,7.12-3.7-.77-7.72-3.3-9.41-7.12Z"/>
      <path class="cls-3" d="M428.07,271.02c16.83-.01,33.67-.02,50.5,0,1.56,0,2.81,0,3.79-.07-.99.07-2.23.07-3.79.07-16.83,0-33.66,0-50.5,0Z"/>
      <path class="cls-3" d="M341.6,265.72c27.04.05,54.08.11,81.14.08-27.05-.02-54.1-.14-81.14-.08Z"/>
      <path class="cls-3" d="M372.72,77.42c-1.12-.18-2.68.12-3.94-.01,1.26.15,2.83-.14,3.94.01,33.97-.05,67.94.21,101.91-.04.82,0,1.53.02,2.14.12-.61-.09-1.32-.13-2.14-.12-33.97.25-67.94,0-101.91.04Z"/>
      <path class="cls-3" d="M394.76,242.22c.59-.28,1.04-.74,1.3-1.49-.26.74-.71,1.21-1.3,1.49Z"/>
      <path class="cls-3" d="M366.83,76.13c-.1-.28-.16-.63-.16-1.04,0,.41.05.76.16,1.04Z"/>
      <path class="cls-3" d="M485.4,72.62c-.82-.49-2.06-.55-3.59-.54-13.92-.01-27.84.07-41.76.16,13.92-.09,27.85-.17,41.76-.16,1.53-.01,2.77.06,3.59.54Z"/>
      <path class="cls-3" d="M486.19,263.42c0,3.55,0,5.44-.78,6.44.78-1,.78-2.89.78-6.44.1-38.9-.03-77.85-.05-116.77.02,38.92.14,77.87.05,116.77Z"/>
      <path class="cls-3" d="M436.16,223.2c-.26.01-.51.06-.76.09.25-.03.5-.07.76-.09,1.59.03,2.69.73,3.47,1.83-.78-1.14-1.88-1.85-3.47-1.83Z"/>
      <path class="cls-3" d="M396.19,191.63c0-9.12,0-18.23,0-27.24,0,9.01,0,18.12,0,27.24Z"/>
      <path class="cls-3" d="M438.02,213.47c-.62-.09-1.19-.13-1.73-.13.54,0,1.11.05,1.73.13Z"/>
      <path class="cls-3" d="M446.33,207.75c-.08-.83-.39-1.8-.55-2.72-1.19-5.13-2.16-10.27-3.05-15.43.89,5.16,1.86,10.3,3.05,15.43.16.93.47,1.89.55,2.72Z"/>
      <path class="cls-3" d="M409.79,242.14c4.49-24.44,8.92-48.83,13.3-73.29-4.37,24.46-8.81,48.85-13.3,73.29Z"/>
      <path class="cls-3" d="M442.52,238.66c-.5-1.61-.67-4-.95-6.44.26,2.41.42,4.8.95,6.44Z"/>
      <path class="cls-3" d="M274.63,265.7c6.76-.01,13.53-.02,20.29-.02-6.06-.35-15.26-.77-20.29.02Z"/>
      <path class="cls-3" d="M415.66,318.2c-2.09,1.39-3.87,1.79-5.3,1.55,1.43.24,3.21-.16,5.3-1.55Z"/>
      <path class="cls-3" d="M406.31,314.84c-.22-2.07.5-4.25,2.3-5.35-1.8,1.1-2.52,3.28-2.3,5.35Z"/>
      <path class="cls-3" d="M386.5,310.74c-.17,3.38-.43,7.43.03,9.72-.46-2.29-.2-6.34-.03-9.72Z"/>
      <path class="cls-3" d="M365.99,306.36c-.54.03-.87.65-1.06,1.64.19-.98.52-1.6,1.06-1.64Z"/>
      <path class="cls-3" d="M367.19,319.85c-.14-1.08,0-3.13.1-5.3-.11,2.17-.25,4.21-.1,5.3Z"/>
      <path class="cls-3" d="M414.16,307.07c-.97-1.17-2.81-1.22-4.7-.51,1.89-.71,3.72-.66,4.7.51Z"/>
      <path class="cls-3" d="M364.83,315.8c.13,2.65.26,5.09.05,6.14.22-1.06.08-3.5-.05-6.14Z"/>
      <path class="cls-3" d="M403.63,312.48c-.56,1.87-.31,4,1.26,6.14-1.57-2.14-1.81-4.26-1.26-6.14Z"/>
      <path class="cls-3" d="M276.55,270.97c-1.14-.08-2.3-.12-3.42-.3,1.07.26,2.36.24,3.42.3Z"/>
      <path class="cls-3" d="M271.05,267.57c.03-.19.08-.37.15-.54-.11.17-.16.35-.15.54Z"/>
      <path class="cls-3" d="M405.17,319.04c1.04,1.98,4.35,3.34,7.01,3.29-2.66.05-5.97-1.32-7.01-3.29Z"/>
      <path class="cls-3" d="M415.84,319.74c.04-.45-.02-.96-.17-1.54.16.58.21,1.09.17,1.54Z"/>
      <path class="cls-3" d="M321.83,50.61c-2.18-4.18-5.76-7.58-10.47-9.1-.9-.29-1.84-.64-2.75-.78.91.15,1.84.49,2.75.78,4.71,1.53,8.3,4.93,10.47,9.1Z"/>
      <path class="cls-3" d="M277.48,78.29c2.08-1.45,3.07-3.24,4.06-5.03-.99,1.78-1.99,3.58-4.06,5.03Z"/>
      <path class="cls-3" d="M281.17,53.23c-3.17-1.21-6.95-1.34-11.06.1,4.11-1.44,7.89-1.31,11.06-.1Z"/>
      <path class="cls-3" d="M326.18,135.43c-2.65-.15-5.21-.3-7.21.61,1.99-.91,4.56-.76,7.21-.61Z"/>
      <path class="cls-3" d="M222.19,134.65c1.06.26,2.04-.31,3.09-1.06-1.05.75-2.03,1.32-3.09,1.06Z"/>
      <path class="cls-3" d="M255.35,59.36c-2.51,2.12-5.05,4.9-6.42,7.57,1.37-2.67,3.91-5.45,6.42-7.57Z"/>
      <path class="cls-3" d="M263.74,113.77c-4.53-1.53-9.92-5.57-13.72-10.62,3.8,5.04,9.19,9.09,13.72,10.62-.14-3.5,2.6-2.92,4.46-3.59-1.87.67-4.6.09-4.47,3.59Z"/>
      <path class="cls-3" d="M268.79,82.31c1.48.74,2.99.58,4.84-2.21.23-.07.46-.15.67-.22-.22.08-.44.15-.67.22-1.85,2.79-3.36,2.95-4.84,2.21Z"/>
      <path class="cls-3" d="M283.57,70.12c.66-.79,1.47-1.52,2.55-2.17-1.08.64-1.89,1.38-2.55,2.17Z"/>
      <path class="cls-3" d="M313.74,51.48c1.63,2.11,2.94,5.91,3.22,9.07-.28-3.16-1.59-6.96-3.22-9.07Z"/>
      <path class="cls-3" d="M312.98,65.33c0-.33-.04-.68-.11-1.06.08.38.12.73.11,1.06Z"/>
      <path class="cls-3" d="M270.73,78.23c-.98,1.25-2.11,1.71-3.82.7,1.71,1.02,2.84.56,3.82-.7Z"/>
      <path class="cls-3" d="M282.74,64.46c-3.11.77-5.24,2.54-6.83,4.62,1.59-2.07,3.72-3.85,6.83-4.62Z"/>
      <path class="cls-3" d="M327.45,145.81c-.2-2.79.03-4.22.52-4.96-.49.74-.72,2.17-.52,4.96Z"/>
      <path class="cls-3" d="M330.51,121.07c2.78.09,5.23.54,7.37,1.26-2.13-.72-4.59-1.17-7.37-1.26Z"/>
      <path class="cls-3" d="M332.95,86c.25.27.42.65.48,1.17-.06-.53-.23-.9-.48-1.17Z"/>
      <path class="cls-3" d="M270.59,147.53c-1.28-.07-2.55-.23-3.81-.45,1.26.22,2.53.37,3.81.45Z"/>
      <path class="cls-3" d="M313.34,65.64c.83.27,1.51.27,2.04.05-.53.22-1.21.22-2.04-.05Z"/>
      <path class="cls-3" d="M319.62,72.94c.68.68,2.04,1.63,3.52,2.71-1.48-1.08-2.84-2.03-3.52-2.71Z"/>
      <path class="cls-3" d="M329.11,84.2c.47.5,1.12.71,1.78.89-.65-.17-1.31-.38-1.78-.89Z"/>
      <path class="cls-3" d="M285.48,80.93c5.06-5.29,6.28-11.74,4.85-17.17,1.44,5.44.22,11.88-4.85,17.17Z"/>
      <path class="cls-3" d="M330.68,140.06c.53-.01,1.07-.07,1.6-.32,0,0,0,0,0,0-.53.25-1.08.31-1.6.32Z"/>
      <path class="cls-3" d="M328.7,83.34c.46-.7.42-1.47.05-2.28.37.8.41,1.57-.05,2.28Z"/>
      <path class="cls-3" d="M319.62,72.94c4.27-4.8,5.42-11.31,4.08-17.23,1.35,5.92.2,12.43-4.08,17.23Z"/>
      <path class="cls-3" d="M353.07,69.73c-1.33-.65-2.41.37-4.32,3.07-3.02,3.54-5.63,7.34-8.55,10.98,2.92-3.64,5.53-7.43,8.55-10.98,1.91-2.7,2.99-3.72,4.32-3.07Z"/>
      <path class="cls-3" d="M341.98,145.15c4.63-2.69,6.7-7.03,6.29-11.3.41,4.27-1.66,8.61-6.29,11.3Z"/>
      <path class="cls-3" d="M271.26,55.7c-.56.24-1.32.43-1.65.18.32.25,1.09.06,1.65-.18Z"/>
      <path class="cls-3" d="M309.05,52.63c-.09,1.27.33,2.77.94,4.33-.6-1.56-1.03-3.06-.94-4.33Z"/>
      <path class="cls-3" d="M323.38,99.3c-.9-2.13-2.01-4.17-3.56-6.21,1.54,2.04,2.66,4.08,3.56,6.21Z"/>
      <path class="cls-2" d="M126.71,120.56s0,.01,0,.02c.56.98,1.58.58,2.27,1.02.23.15.43.38.56.79-1.32.91-2.08,1.81-1.59,3.95.69,2.99,2.99,1.49,4.33,2.06.17,1.66-3.31,2.01-1.25,3.52,1.98,1.46,3.45,3.11,4.59,5.19,0,0,.1-.03.23-.09.09-.04.19-.09.3-.14.11-.05.22-.11.32-.15.05-.02.1-.05.14-.07.33-.15.57-.21.74-.21.09,0,.15.02.21.05.27.15.17.65.02,1.19,0,0,0,0,0,0,0,0,0,0,0,0-.03.05-.04.11-.06.17,0,.03-.03.05-.03.09,0,.07,0,.15.01.23,0,.02,0,.04,0,.06.23,1.02,2.17,2.59,4.72,4.11.03.02.06.04.1.06.08.05.16.09.23.13,3.61,2.11,8.33,4.07,11.29,4.28,1.3.09,2.25-.16,2.63-.88,0,0,0,0,0,0,.09-.25.19-.49.28-.74-2.2-.5-3.24-3.65-6.27-2.62-.16-1.21.57-1.9,1.2-2.65.25-.3.48-.62.63-.98.08-.18.13-.38.16-.59-.33-.27-.67-.55-1.04-.82-.37-.27-.76-.53-1.17-.78-.82-.49-1.73-.91-2.73-1.18-3.43,3.2-4.7,3.14-11.49-.69,1.7-.79,3.06-1.8,4.88-1.66.6-2.03-.81-3.21-1.91-4.59,0,0-.02-.02-.02-.03-.33-.41-.63-.82-.92-1.23-.02-.03-.04-.06-.07-.1-.28-.4-.54-.8-.78-1.21-.14.15-.28.28-.42.41-.02.02-.04.03-.05.05-.12.11-.24.21-.36.31-.03.02-.06.04-.08.06-.11.08-.22.16-.33.23-.04.02-.07.04-.11.06-.1.06-.21.12-.32.16-.04.02-.09.03-.13.04-.1.04-.2.07-.31.09-.06.01-.12.01-.18.02-.1.01-.19.03-.29.03-.08,0-.17-.01-.26-.02-.08,0-.16,0-.25-.02-.18-.03-.36-.07-.56-.14.07-.23.14-.45.22-.64.05-.12.11-.23.17-.33.03-.06.06-.12.09-.17.08-.12.17-.22.27-.32.02-.02.03-.04.05-.06.11-.1.23-.17.35-.24.01,0,.02-.01.03-.02.13-.06.28-.1.44-.13,0,0,0,0,.01,0,.16-.02.34-.02.53,0,0,0,0,0,0,0,.38.04.83.17,1.34.38-.15-.26-.29-.52-.43-.78-.02-.05-.05-.09-.07-.14-.13-.25-.25-.5-.36-.75-.02-.05-.04-.1-.07-.15-.11-.26-.22-.51-.32-.77,0,0,0,0,0,0-.3-.8-.52-1.61-.66-2.43-.02-.1-.04-.2-.05-.3-.03-.2-.05-.41-.08-.61-.01-.13-.03-.26-.04-.39-.01-.19-.02-.38-.03-.58,0-.15,0-.3,0-.46,0-.18,0-.36.01-.54.01-.2.03-.4.05-.6.02-.2.04-.4.07-.6.04-.27.08-.54.14-.81.03-.13.06-.27.1-.4.05-.22.11-.44.17-.67.04-.14.09-.28.13-.42.07-.23.15-.45.24-.68.05-.13.1-.26.15-.4.1-.26.22-.51.34-.77.05-.11.09-.21.14-.31.18-.37.37-.74.58-1.11,7.31-5.17,17.02-2.81,25.45-.66,1.45.37,2.86.73,4.22,1.05,2.86.33,5.65,1.97,8.4,3.12t0,0s.03.01.04.02c1.82.76,3.63,1.3,5.44,1.1,1.28-.14,2.55-.65,3.83-1.7-.06.46-.11.87-.15,1.22-.08.71-.11,1.23-.07,1.63.02.2.06.37.13.52s.16.27.27.39c.23.23.58.41,1.07.63.25.11.53.22.85.35.08-.13.09-.28.08-.43-.05-.51-.46-1.08-.15-1.49.09-.12.24-.23.49-.32,1.56.08,2.23,1.48,3.04,2.87.46.79.97,1.57,1.71,2.1.53.38,1.18.64,2.02.67-2.12,4.85-5.91,7.95-9.11,11.42-.32,1.46,2.21.57,1.5,2.47-3.06.46-7.84-1.76-8.28,4.11-1.39.63-.76-1.15-1.89-1.25-.38,1.25-.97,1.94-1.72,2.06-.76.13-1.68-.3-2.74-1.3-2.99,7.2-6.37,1.01-9.24.58-.67.23-1.16.57-1.53.98s-.63.88-.83,1.39c-.07.17-.13.34-.19.52-.17.52-.32,1.06-.49,1.58-.17.52-.37,1.01-.66,1.45-.29.44-.68.81-1.22,1.09h0c0,.32-.02.87,0,1,0,.02,0,.03.01.03,9.05,1.65,17.59,4.3,26.15-1.9,1.05.63-.38,1.54.55,2.2,4.87-1.02,9.41-2.63,13.59-4.86,2.39-1.27,4.66-2.75,6.8-4.44.54-.42,1.07-.86,1.59-1.3,1.56-1.34,3.05-2.8,4.47-4.38.47-.53.94-1.07,1.39-1.62-.03-.18-.06-.35-.1-.53-.07-.36-.14-.72-.22-1.08-.11-.55-.21-1.1-.27-1.66-.06-.56-.08-1.11-.02-1.67.02-.18.04-.37.08-.55.07-.37.18-.73.34-1.09.31-.72.82-1.42,1.59-2.08-2.27.44-4.33,2.38-7.35.69.65-.27,1.26-.69,1.84-1.11.29-.21.58-.42.86-.61.71-.47,1.41-.82,2.16-.75.3.03.6.13.92.31.47.27.97.74,1.51,1.47,0,0,.01,0,.02,0,2.33-.82,2.86,1.53,3.83,2.39.07.06.13.11.2.15,4.88-2.71-.91-4.47.03-7.36-1.8,1.58-2.89,1.36-3.76.59-.22-.19-.42-.42-.62-.66-.59-.73-1.13-1.6-1.81-2.09-.33.38-.26.86-.15,1.32.11.46.26.9.09,1.21-.11.2-.37.35-.88.4-.08-.01-.15-.03-.23-.04-.58-.12-.96-.32-1.19-.58-.49-.57-.33-1.42-.18-2.34.17-1.04.32-2.17-.49-3.07-.53-.59-1.48-1.09-3.11-1.4,2.62-1.41,3.88-3.55,6.63-3.37.37,1,.75,2.04,1.21,3.26.15.41.31.83.48,1.29h0c1.33-1.68,2.64-2.28,3.95-2.3.38,0,.75.04,1.13.11,1.32.27,2.64.98,4,1.62-.11.75-.31,1.28-.58,1.67-.51.74-1.24.94-1.93,1.15-.39.12-.76.23-1.07.44-.39.26-.68.66-.79,1.39,0,0,0,0,0,0,4.55.24,5.82-.37,7.35-4.74.23-.67.48-1.43.73-2.3.13-.43.26-.89.4-1.37h-4.55c.86-1.86.78-3.07.18-3.95-.99-1.47-3.41-2.03-5.32-3.14,1.19-1.11,2.03-1.89,2.58-2.4,2.8-.05,4.49,5.2,6.87,1.31,1.2-1.96,4.11-3.64,2.81-6.49,1.27-1.14,2.24.36,3.39-.28.2-.79.49-1.59.67-2.41.09-.41.15-.82.17-1.24.01-.42-.03-.84-.15-1.27-.16-.57-.45-1.15-.93-1.74h0c-.52.44-1.04.87-1.58,1.24-.53.37-1.09.66-1.68.82-.71.18-1.48.16-2.34-.18.71-3.32,2.65-3.49,4.81-3.17.39.06.79.13,1.19.21.6.11,1.2.23,1.78.29h0c-.4-1.06-.83-1.95-1.04-2.92-.12-.58-.17-1.19-.08-1.89,2.83,1.3,2.79-.36,2.56-2.29-.11-.02-.22-.02-.32,0-.22.03-.43.11-.63.2-.23.1-.45.19-.65.21-.07,0-.13,0-.19,0-.16-.03-.31-.15-.43-.4-.79-1.67.44-1.86,1.55-2.17.25-.07.49-.15.69-.25.42-.2.72-.5.71-1.04,0-.14-.02-.28-.07-.45-.89-.11-1.74-.28-2.49-.53-.95-.32-1.76-.78-2.37-1.45-.21-.23-.4-.49-.57-.77-.16-.28-.3-.6-.41-.94-.21-.68-.31-1.49-.26-2.44h0c-.71-.77-1.4-.73-2.06-.21-.74.58-1.44,1.78-2.08,3.13-.99,2.1-1.83,4.59-2.44,5.73-.04.08-.09.16-.13.22-1.06-.89-1.25-1.82-1.12-2.77.21-1.51,1.24-3.04.82-4.43-.05-.17-.13-.34-.23-.51-.21-.34-.52-.66-.98-.97,3.01-.2,6.01-1.44,8.88-1.47.95-.01,1.89.11,2.81.45.61.23,1.22.55,1.81,1,.59.44,1.18,1.01,1.75,1.72-.57-1.18-.38-2.37.02-3.59.08-.24.17-.49.26-.73.18-.49.38-.98.55-1.47.7-1.97,1.07-3.97-1.16-6,.25-.37.83-1.22,1.4-2.06-.38-.31-.7-.59-.99-.84-.14-.12-.27-.24-.4-.35-1.21-1.09-1.39-1.58-.97-2.68.13-.33.3-.72.52-1.2.96-.16,1.23.65,1.66,1.26.09.12.18.24.28.34.05.05.11.09.17.13.12.08.25.14.41.16.08.01.16.02.25.02h0c.11-.28.19-.56.24-.85.15-.85.04-1.72-.12-2.62-.74-.28-1.58-.35-2.35-.62-.46-.17-.89-.41-1.24-.82,0,0,0,0,0,0,2.82-1.92,4.2-5.94,4.78-10.78.62-5.18.31-11.3-.13-16.78-.34-4.29-.77-8.18-.9-10.92-.26-1.59-.75-2.97-1.43-4.18-.02-.04-.04-.08-.06-.11-.16-.28-.34-.55-.52-.81-.02-.02-.03-.05-.05-.07-.94-1.32-2.13-2.38-3.49-3.2-.1-.06-.19-.12-.29-.18-.03-.02-.07-.04-.1-.05-6.51-3.64-16.62-2.09-22.41,2.44-.01,0-.03.02-.04.03,0,0,0,0-.01,0-1.69,1.07-2.55,2.11-2.91,3.15-.53,1.54.03,3.1.62,4.81.61,1.77,1.26,3.71.8,5.98-.3,5.14-1.83,9.86-3.71,14.46-2.06,5.03-4.55,9.92-6.37,15.03h0s-17.68,23.89-17.68,23.89c0,0-.02,0-.03,0-.01,0-.03.02-.04.02-.14.07-.28.15-.42.24,0,0-.02.02-.03.02-.89.63-1.66,1.76-2.48,2.77l-1.4,1.41c-.26.19-.52.35-.8.46,0,0,0,0-.01,0,0,0,0,0,0,0,.07.05.14.1.21.14h0s-.79.8-.79.8h0c-.19-.13-.38-.28-.58-.43-2.79,2.13-5.19,3.28-7.26,3.66l-.64.05-1.2.09c-2.27-.11-4.07-1.29-5.46-3.27-2.73-3.86-3.95-10.7-4.28-18.2,0-.04,0-.08,0-.12l1.7-23.94,2.05-11.07c.33-.06.67-.15,1.02-.27.49-.18,1.18.49,1.77.78.15.07.29.12.42.13.39.02.7-.34.78-1.6h0s-.03-.01-.05-.02c-.29-.1-.48-.25-.59-.42-.18-.28-.15-.61,0-.86.2-.33.6-.51.98-.2.12.1.24.25.34.46.13,0,.23.02.34.05.06.02.12.05.18.08.28.15.5.42.71.7.16.21.33.41.53.55.2.14.45.22.77.17h0c1.32-.87,1.49-2.07,1.47-3.31,0-.14,0-.28-.01-.41-.01-.28-.02-.55-.03-.83,0-.14,0-.27,0-.41,0-.27.02-.54.06-.8.02-.13.05-.26.08-.38.28-1.06.38-2.11.34-3.15-.02-.52-.08-1.03-.18-1.53-.05-.25-.1-.5-.17-.75-.32-1.24-.85-2.42-1.55-3.51-.14-.22-.29-.43-.44-.64-2.43-3.35-6.47-5.63-10.69-5.54-.79.02-1.59.12-2.38.31-.49.12-.99.27-1.48.45-.49.18-.98.39-1.46.63-.96.47-1.9,1.05-2.81,1.72-.61.45-1.2.94-1.77,1.46-.92.84-1.79,1.77-2.61,2.77-2.92,3.58-5.07,8.08-5.82,12.56h0s0,.03,0,.03c-.05.3-.09.59-.13.89l-1.37,9.55c-.27.09-.52.27-.72.64-.08,1.19-.82,2.56-.16,3.56.09.06.18.09.26.13l-.34,2.4h0c-.16.19-.3.41-.4.67-.03.08-.04.17-.07.26-.03.12-.07.22-.09.35-.06.35-.05.78-.01,1.26.01.14.01.27.03.42-.06.66-.12,1.32-.17,1.98h0s-.34,2.37-.34,2.37l.11.97h0c-.05,1-.1,2-.12,3-.02.92-.03,1.84-.03,2.76,0,1.18.02,2.35.08,3.52,0,.16.02.32.03.48.06,1.23.16,2.46.28,3.69.08.77.17,1.55.28,2.32.09.66.19,1.31.3,1.97.32,1.9.72,3.78,1.23,5.65.04.16.08.31.12.47.01.05.03.11.05.16.88,3.08,2.03,6.12,3.51,9.08,3.47,7.32,8.45,12.16,15.15,14.29,3.05.97,6.45,1.38,10.23,1.21,1.52-.07,2.67-1.42,4.04-1.85.27-.09.56-.14.85-.14.22,0,.45.03.69.11.24.07.49.18.75.33.17.1.35.22.54.37h0s0,0,0,0c0,0,2.76-.73,6.67-2.27.29-.07.59-.14.94-.24.25-.07.52-.15.81-.23.57-.17,1.22-.37,1.96-.59-.03-.08-.08-.15-.13-.22-.04-.06-.1-.11-.15-.17,2.61-1.18,5.46-2.65,8.23-4.44,1.15-.65,2.17-1.37,3.04-2.13,2.69-2.05,5.17-4.42,7.09-7.14,4.17-4.2,6.69-9.26,10.05-13.78.48-.65.98-1.28,1.5-1.9h0c-.15,1.22-.29,2.44-.44,3.68-.15,1.23-.3,2.48-.45,3.76.17-.07.35-.12.54-.17.26-.07.54-.12.82-.16,1.76-.24,3.79.13,4.47,1.19.4.61.34,1.46-.49,2.56-1.04.86-1.62,1.95-2.23,3.15-.19.37-.38.75-.59,1.14-.13.23-.26.47-.41.71-.26-.53-.39-1.09-.48-1.65-.05-.28-.08-.56-.12-.83-.02-.14-.04-.27-.06-.4-.09-.53-.21-1.03-.45-1.45-.06-.11-.13-.21-.21-.3-.23-.29-.54-.53-.97-.7-.14-.06-.3-.11-.47-.15-.58,3-1.13,5.83-1.68,8.64.91.75,1.79,1.19,2.63,1.37,1.86.39,3.59-.47,5.27-1.96.46.25.71.55.85.89.05.11.08.23.1.35.02.12.04.25.05.38.03.54-.06,1.11-.03,1.64,0,.13.03.26.06.39.03.13.07.25.13.37.04.09.09.17.14.26.05.09.1.17.15.26.1.17.2.34.28.52.16.34.25.69.12,1.03-.09.23-.27.46-.58.68-.25.18-.51.33-.77.44s-.51.18-.76.21c-.49.05-.95-.09-1.31-.49-.08-.18-.11-.33-.11-.47s.03-.25.08-.35c.1-.2.29-.35.47-.5.09-.07.18-.14.26-.22.12-.12.21-.24.24-.41.02-.11.01-.23-.03-.38-.02-.07-.06-.15-.1-.23-6.21-.14-10.84.44-8.99,8.18.26,1.27-.62,1.36-1.15,1.7-.18.11-.31.25-.35.47.06.15.12.29.19.42.28.52.64.87,1.08,1.1.11.06.22.11.34.16.24.09.49.16.77.22.41.08.86.13,1.34.17.32.03.66.05,1.01.07.53.04,1.09.09,1.67.17-.61.25-1.02.57-1.32.92-.3.35-.48.72-.64,1.06-.08.17-.15.34-.23.5-.08.16-.16.3-.27.43-.2.26-.47.45-.9.53-.32-.1-.57-.28-.77-.51-.07-.08-.13-.16-.18-.24-.62-.93-.76-2.3-2.05-2.29-.12,0-.24.01-.38.04-.19.04-.37.09-.52.16-.16.07-.29.15-.42.25-.73.57-.9,1.61-.92,2.63.96,1.58,4.11,1.17,3.58,4.29-2.44-.97-4.01-.66-5.13.35-1.18,1.07-1.85,2.93-2.5,4.92-.73,2.24-1.42,4.63-2.76,6.21-.85,1-1.95,1.68-3.49,1.8-.24-.91-.39-1.94-.6-2.94-.46-2.19-1.21-4.22-3.92-4.5-4.7-1.81-9.21-3.83-13.84-5.6-3.66-1.4-7.39-2.63-11.35-3.43-1.18-.28-2.65-1.19-3.64-.04-.23.26-.43.64-.6,1.15-.21.65-1.56.61-2.07-.08-.83-1.11.92-1.09,1.14-2.09-4.31-1.1-9.3-1.48-14.06-.96-7.46.82-14.36,3.88-17.22,9.9-1.31,2.76-1.78,6.14-1.07,10.21ZM222.49,89.56c4.08,1.75,4.03,2.06-.27,5.22.63-1.6,1.91-2.98.27-5.22ZM221.46,89.18q-1.24,3.16-5.86.93c2.54-.41,4.14-.66,5.86-.93ZM215.54,96.41s0,0,0,0c.33-.6.68-.84,1.05-.89.45-.05.92.2,1.4.43.66.32,1.33.6,1.97-.07-.09.74-.42,1.3-.84,1.71-.38.44-.83.65-1.32.71-.63.14-1.27.05-1.72-.24-.72-.25-.85-1.09-.55-1.65ZM207.25,117.75c-1.21.43-2.38.84-4.15,1.46,1.72-3.62.3-5.25-3.23-5.41,2.28-2.21,3.44-1.52,7.38,3.95ZM197.51,127.58c.06-.58.27-1.05.58-1.04,2.53.03.53-2.17,2.06-3,1.12,1.35,2.16,2.6,3,3.62.01.62-.19.92-.48,1.09-.12.06-.24.11-.38.14-.07.01-.13.03-.2.04-.54.08-1.08.06-1.06.63.1.5.06.88-.06,1.17-.21.48-.67.68-1.18.66-.78-.03-1.67-.56-2-1.39-.02-.05-.04-.09-.06-.14-.17-.36-.25-.84-.26-1.31,0-.16,0-.31.02-.45Z"/>
      <path class="cls-2" d="M227.1,136.27c6.33,1.96,12.04,3.73,17.58,5.45,1.63-2.1,1.1-4.3,1.72-6.45,1.15,2.38,3.4,3.31,5.05,4.56.47,1.54-1.25,2.09-1.07,3.46,4.54.62,8.95,2.13,13.42,3.18.88.21,1.76.4,2.65.57.11.02.22.03.32.05,1.26.22,2.53.37,3.81.45,2.89.16,5.84-.11,8.9-1.17-1.01,2.62.65,2.76,2.48,2.85.79.07,1.58.14,2.37.21,1.58.14,3.17.27,4.75.4.79.06,1.58.13,2.38.19,3.17.24,6.34.45,9.51.59,2.38.1,4.76.16,7.14.16,1.59,0,3.18-.03,4.77-.08,2.38-.09,4.77-.24,7.16-.48-.48-2.64,2.71-4.45,7.4-4.38-.2-2.79.03-4.22.52-4.96.61-.92,1.62-.76,2.72-.79.53-.01,1.08-.07,1.6-.32,0,0,0,0,0,0-2.31,1.85-2.24,3.57.3,6.42.41.46.88.94,1.42,1.47,3.2-.37,5.86-1.25,7.98-2.48,4.63-2.69,6.7-7.03,6.29-11.3,0-.03,0-.07,0-.1-.02-.18-.06-.37-.09-.55-.03-.21-.06-.42-.1-.62,0-.01,0-.02,0-.03-.84-3.87-3.74-7.52-8.66-9.63-.15-.06-.32-.12-.47-.18-.35-.14-.7-.28-1.07-.41-2.13-.72-4.59-1.17-7.37-1.26,3.24-2.6,6.91-5.26,7.08-8.92.16-3.45,4.36-6.22,1.32-10.05-1.01-.63-3.04.56-3.8-1.42,1.25-1.64,2.92.29,4.25-.88-1.9-6.77,6.12-8,7.34-13.37-1.81-.56-1.73-2.48-2.29-4.08,2.1-.96,3.85-.65,5.46.57.74-.73,1.39-1.51,1.98-2.32,1.77-2.43,2.96-5.16,4.13-7.9-1.02-1.32-1.81-2.23-2.5-2.72-.07-.05-.14-.08-.2-.12-.07-.04-.14-.09-.2-.12-1.33-.65-2.41.37-4.32,3.07-3.02,3.54-5.63,7.34-8.55,10.98-1.75,2.18-3.62,4.32-5.75,6.31-.74-.6-2.64-.03-3.75-1.24.28-2.03,2.24-.48,2.72-1.68-.06-.53-.23-.9-.48-1.17-.49-.55-1.28-.7-2.07-.91-.65-.17-1.31-.38-1.78-.89-.19-.2-.35-.45-.47-.76.02-.03.04-.07.06-.1.46-.7.42-1.47.05-2.28-.05-.1-.1-.2-.16-.3-.01-.02-.02-.04-.03-.06-.98-1.68-3.27-3.46-5.35-4.99-.02-.01-.03-.02-.05-.04-.01,0-.02-.02-.04-.03-1.48-1.08-2.84-2.03-3.52-2.71,4.27-4.8,5.42-11.31,4.08-17.23-.4-1.77-1.02-3.5-1.86-5.1-2.18-4.18-5.76-7.58-10.47-9.1-.9-.29-1.84-.64-2.75-.78-.18-.03-.36-.05-.54-.06-.46-.03-.91,0-1.34.15-.86.28-1.65.98-2.29,2.38-.7,1.52-2.52,1.33-3.71,0-.26.31-.37.64-.43.98-.17,1.01.16,2.06-1.32,2.55-4.89,2.29-6.3,6.35-5.82,10.78.58,5.38,3.93,11.31,7.23,15.33.54.65,1.07,1.26,1.59,1.8.66.79,1.62,1.37,1.87,2.41.08.35.09.74-.03,1.22-2.41,10.03-6.24,19.19-15.17,25.26-1.47,1-3.03,1.77-2.27,4.85-3.01-2.7-4.58-2.2-5.37.78,1.83.35,3.82-.44,5.08,1.27-4.58,4.08-8.07-.21-9.99-2.43-2.06-2.38-4.83-3.22-6.67-5.45,2.2-2.47.81-9.5-2.75-12.5,8.24-1.62,14.09-4.66,17.97-8.34.04-.04.07-.07.11-.11.24-.23.47-.45.69-.68,5.06-5.29,6.28-11.74,4.85-17.17-.02-.08-.04-.17-.06-.25-.03-.09-.06-.18-.08-.27-.05-.18-.11-.37-.17-.55,0-.02-.01-.03-.02-.04-1.46-4.28-4.6-7.79-8.82-9.4-3.17-1.21-6.95-1.34-11.06.1-.41,1.55,2.22.3,1.61,2.13-.12.07-.28.16-.46.24-.56.24-1.33.43-1.65.18-1.19-1.91-2.38-2.53-3.56-2.5-1.97.05-3.9,1.92-5.7,2.67-1.33.54-3.16,1.75-5,3.31-2.51,2.12-5.05,4.91-6.42,7.57-1.08,2.1-1.44,4.14-.47,5.72-4.9,2.14-3.33,6.53-4.78,11.1,4.19-2.63,7.18-2.23,9.82.65-.55,1.31-2.37,1.65-2.37,3.19.34,1.12,2.19.42,2.19,2.15-4.46,1.89-4.9-3.84-8.27-4.27-2.85,2.54.13,4.5,1.02,6.49.9,2.01,4.38,2.32,4.18,5.05-1.63,1.41-2.43-1.36-3.79-.08.38.97.84,1.93,1.36,2.86.65,1.16,1.4,2.29,2.22,3.37,3.8,5.04,9.19,9.09,13.72,10.62-.13-3.49,2.6-2.92,4.47-3.59.27-.1.52-.22.74-.38,2.12,3.48-3.5,2.38-2.62,5.03,4.95,1.86,9.89,2.05,14.57,1,3.73-.84,7.3-2.48,10.56-4.68,4.53-3.06,8.49-7.22,11.52-11.88,4.15,20.61,8.18,24.46,24.64,23.84-3.99,6.54-.2,9.63,6.14,11.79-2.31.82-4.98.67-7.57.53-2.65-.15-5.21-.29-7.21.61-1.31.6-2.38,1.65-3.07,3.46-1.11-2.96-2.97-2.32-4.56-2.07-5.81.89-11.66.74-17.49.8-7.8.07-15.6.02-23.4.02-1.03-.06.27,1.38-.71,2.31-.51-.19-1.58-.17-2.38,0,1.51-.77.93-2.43,1.09-3.68-13.16-2.56-26.55-3.89-39.13-9.18-.73,2.22-1.47,4.04-3.9,2.71-3.74-2.05-8.3-.51-12.42-4.05.33,1.26.74,2.04,1.21,2.56.69.76,1.49.93,2.31,1.14.85.21,1.72.46,2.51,1.43,1.19,2.03,2.21,2.93,3.16,3.16,1.06.26,2.04-.31,3.09-1.06,1.04-.74,2.16-1.66,3.49-2.11.4-.14.82-.23,1.27-.27-.34,2.03-.83,3.74-2.95,5.06ZM301.44,67.16c-.91-1.49-1.75-3.36-4.37-2.83,2.47-.71,3.87-3.41,6.86-2.44-1.48,1.51.14,4.1-2.49,5.27ZM252.98,68.19c-.45-1.47.97-3.14-.65-4.74,3.27-.03,6.2,2.03,9.43.62-2.14,3.44-4.06,7.05-8.78,4.13ZM263.24,80.03c-3,2.98-2.87,8.1-7.05,10.2q-.9-3.71,3.17-6.58c.1-2.46-1.96-1.75-3.4-2.53,2.35-.38,2.62-4.11,5.7-3.22,1.34.38,2.11,1.6,1.57,2.13ZM266.12,80.4c-.69-.53-1.41-1.03-2.19-1.35.6-.36,1.05-.53,1.42-.58.62-.08,1.03.18,1.5.41.02.01.04.02.07.04,1.71,1.02,2.84.56,3.82-.7,1.54-1.98,2.71-5.92,5.18-9.14,1.59-2.08,3.72-3.86,6.83-4.62,1.22,1.13,1.19,2.83,3.37,3.49-1.08.65-1.89,1.38-2.55,2.17-.83.99-1.43,2.06-2.03,3.14-.99,1.78-1.99,3.58-4.06,5.03-.85.6-1.89,1.13-3.18,1.58-.22.08-.44.15-.67.22-1.85,2.79-3.36,2.95-4.84,2.21-.34-.17-.68-.39-1.02-.63-.11-.08-.22-.16-.33-.24-.24-.18-.49-.38-.74-.57-.19-.15-.39-.31-.59-.46ZM339.48,127.52c3.6,1.45,3.22,4.97,5.67,6.29-.15.29-.3.57-.45.86-.97.14-1.93.27-2.76.39-.48,1.3.46,2.11.63,3.68-3.49-.26-4.17-3.15-6.1-5.46,3.48-.47,4.49-2.32,3.02-5.76ZM322.93,86.4c.27-.46.6-.7.93-.76.44-.09.9.12,1.27.5.15.15.28.33.39.53.07.12.13.25.18.38.13.32.21.67.21,1.02,0,.43-.13.87-.42,1.24-2.17.22-1.73-1.89-2.82-2.37.08-.21.16-.39.26-.54ZM310.67,49.99c1.03-.43,2.1.23,3.07,1.48,1.63,2.11,2.94,5.91,3.22,9.07,0,.05.01.11.02.16,0,.09,0,.17.01.26.12,2.02-.21,3.73-1.2,4.48-.04.03-.08.04-.12.07-.1.06-.19.13-.3.18-.53.22-1.21.22-2.04-.05-.12-.04-.23-.07-.36-.12,0-.06,0-.13,0-.19,0-.33-.04-.68-.11-1.06-.03-.14-.07-.29-.1-.44,0,0,0-.01,0-.02-.53-1.98-1.85-4.48-2.77-6.86-.6-1.56-1.03-3.06-.94-4.33.08-1.09.55-2.01,1.62-2.63ZM315.21,110.89c-2.18-1.64-2.54-3.75-3.25-5.78,1.75-.89,3.49-3.37,5.17-1.05,1.74,2.41-.54,4.58-1.92,6.84ZM304.58,96.23c2.45-3.97,3.88-8.23,5.59-12.62,4.81,4.14,7.67,9.15,9.94,15.48-5.33-2.33-10.49-1.25-15.53-2.86ZM326.17,108.78c-.17-.76-.34-1.51-.51-2.23,0-.02,0-.03-.01-.05-.41-1.71-.86-3.31-1.38-4.86-.27-.8-.57-1.58-.89-2.35-.9-2.13-2.01-4.17-3.56-6.21,2.02,1.11,4.86-.82,6.09,1.84.52,1.13-.46,1.6-1.51,1.98,1.94,1.14,3.71,2.28,5.98,2.41-.55,2.22-2.92.62-3.64,2.45,2.89,1.12,2.19,4.97,4.88,6.53-1.92,2.13-3.48-2.22-5.44.49ZM328.68,129.77c3.28-.81,5.56-3.1,8.85-3.62-1.58,4.74-4.51,6.01-8.85,3.62ZM333.6,138.63c-.12.13-.24.27-.35.4,0,0,0,.01,0,.02,0,0-.08.06-.08.06.02-.03.05-.05.07-.08-.05-.19-.1-.39-.15-.59.17.06.34.12.51.19ZM296.2,142.88c-.97,2.11-2.47,3.05-4.91,2.1.68-2.95,3.68-.66,4.91-2.1Z"/>
      <path class="cls-4" d="M214.18,267.7s0-.01,0-.02c-.08-1.61-1.1-1.95-2.42-1.99-33.73-.16-67.46,0-101.2-.06-32.81,0-65.61,0-98.42,0-5.16,0-5.25-.04-5.26-5.43-.02-59.38,0-118.75-.08-178.13,0-2.07.4-3.31,1.4-4,.22-.15.47-.28.76-.38.14-.05.29-.1.45-.13.63-.16,1.39-.22,2.3-.21,7.7.03,15.41.06,23.11.08,7.7.02,15.41.04,23.11.04,7.7,0,15.41,0,23.11-.03,7.7-.03,15.41-.08,23.11-.15.54,0,1.05-.04,1.47-.21.54-.21.92-.64.99-1.52,0-.05.02-.08.02-.13,0-.02,0-.04,0-.06.03-.17.05-.34.04-.52,0-.19-.01-.36-.05-.53-.02-.11-.06-.21-.09-.31-.02-.06-.03-.11-.06-.17-.01-.03-.03-.06-.05-.09-.32-.61-.93-.97-1.68-1.18-.89-.25-1.95-.31-2.94-.35-.54-.02-1.05-.03-1.49-.07-15.93,0-31.85.16-47.77.24-15.92.08-31.84.07-47.77-.29-2-.06-3.26.27-3.99,1.24-.57.75-.8,1.9-.8,3.55C.13,139.88.11,202.84,0,265.8c0,3.89.92,5.31,5.1,5.25,15.4-.24,30.81-.06,46.22-.06,38.93-.08,77.84-.03,116.76-.1,6.7.16,13.41.18,20.12.16,6.71-.02,13.42-.09,20.13-.1.02,0,.04,0,.05,0,.91,0,2,.04,2.99-.1,1.69-.24,3.1-.96,2.82-3.14Z"/>
      <path class="cls-4" d="M485.4,72.62c-.82-.49-2.06-.55-3.59-.54-13.92-.01-27.84.07-41.76.16-9.96.06-19.91.13-29.86.17-10.15-.37-20.31-.23-30.46-.21-3.38,0-6.77,0-10.15-.04-1-.01-1.72.22-2.19.69-.47.48-.7,1.21-.72,2.2,0,.02,0,.03,0,.04,0,.41.06.76.16,1.04.31.86,1.06,1.18,1.96,1.27,1.26.13,2.82-.16,3.94.01,33.97-.05,67.94.21,101.91-.04.82,0,1.53.02,2.14.12.2.03.39.07.58.12.24.06.46.14.67.23,1.36.61,1.89,1.94,1.88,4.57-.19,29.48-.1,58.97-.1,88.45h.04c0,29.09,0,58.17,0,87.26,0,.46,0,.88,0,1.28,0,.8-.03,1.5-.07,2.11-.06.91-.18,1.62-.4,2.18-.73,1.84-2.57,1.93-7.2,1.94-16.48.1-32.95.15-49.42.16-27.05.02-54.1-.04-81.14-.08-15.56-.03-31.12-.05-46.67-.04-6.76,0-13.53,0-20.29.02-.43,0-.86,0-1.29,0-1.09-.2-1.82.44-2.15,1.32-.07.17-.11.36-.15.54-.23,1.27.27,2.75,1.6,3.02.16.03.32.05.49.08,1.12.18,2.28.22,3.42.3,0,0,.02,0,.03,0,50.46.16,100.98.08,151.49.05,16.83-.01,33.67-.02,50.5,0,1.56,0,2.81,0,3.79-.07.33-.02.63-.05.91-.09.16-.02.31-.05.45-.08.23-.05.43-.1.62-.17.47-.17.81-.4,1.08-.74.78-1,.78-2.89.78-6.44.1-38.9-.03-77.85-.05-116.77,0-23.35.02-46.7.17-70.03.43-2.29.05-3.43-.91-4Z"/>
      <path class="cls-1" d="M165.72,226.78c1.55-.3,1.42-1.17,1.64-2.17.4-1.76.61-3.46.63-5.1.01-1.09-.05-2.16-.2-3.2-.79-5.71-3.87-10.65-8.33-15.04-.01-.01-.02-.02-.03-.04-.95-.98-1.31-2.03-1.31-3.14,0-1.72.86-3.56,1.68-5.43.81-1.86,1.59-3.75,1.45-5.58,1.17-7.04-1.07-15.05-6.99-19.61-1.97-1.52-4.35-2.65-7.15-3.24-1.95-.41-3.89-.52-5.82-.52-.8,0-1.61.02-2.41.04-2.4.06-4.79.17-7.18-.06-.02,0-.04,0-.06,0-2.36-.3-3.29.38-3.6,1.52-.35,1.3.12,3.18.21,4.84,0,.02,0,.03,0,.05-.04,20.94-.1,41.88-.13,62.82q-.02,10.11,10.29,10.23c3.96,0,8.16.04,12.11-.7,3.94-.73,7.61-2.25,10.52-5.35.21-.22.42-.43.62-.67.65-.8,1.56-1.62,2.27-2.51.3-.38.57-.78.77-1.19.13-.28.23-.56.28-.85.11-.59.04-1.21-.28-1.88-.96-1.99-.44-2.92,1.01-3.21ZM132.69,203.59c4.8.08,5.16-3.05,5.03-6.82-.08-2.3-.33-4-3.22-3.82.64-1.46,1.77-.42,2.91-1.24-.32-5.91.73-11.88-.54-17.85-.09-.43-.05-.78.1-1.06.05-.11.12-.2.2-.29.55-.61,1.68-.8,2.71-.85,6.9.35,10.4,3.51,11.6,7.89,1.09,3.97.3,8.94-1.55,13.73-2.64,6.85-7.45,13.34-12.01,16.01-.18-1.36-.34-2.62-.47-3.59-1.42-1.58-3.79.97-4.75-2.12ZM157.97,224.68c-2.21,8.06-9.32,11.69-19.93,10.15-1.02-3.31-.82-6.16.13-8.75.02-.07.05-.13.08-.19.11-.28.22-.56.35-.83.97-2.13,2.42-4.09,4.07-5.99.45-.52.92-1.03,1.39-1.54.03-.03.05-.06.08-.08,2.14-2.29,4.44-4.54,6.36-6.96.31-.38.61-.77.89-1.16.21-.29.42-.59.62-.89,6.59,2.15,7.55,10.4,5.95,16.24Z"/>
      <path class="cls-1" d="M357.95,167.18c-2.47-1.36-4.99-2.18-7.55-2.64-.13-.02-.27-.04-.4-.06-.78-.13-1.57-.23-2.35-.3-1.22-.11-2.45-.16-3.68-.16,0,0-.01,0-.02,0-1.3,0-2.61.04-3.92.11-.87.04-1.75.1-2.62.16-1.91.13-3.79-1.77-5.73.01v29.55c1.12.64,2.66-.48,4.01,1.5-4.01-.36-4.28,1.84-4.26,4.54.08,11.61.03,23.23.05,34.85-.2,4-.17,6.19.39,7.31.02.04.05.08.07.12.03.04.05.09.08.13,0,0,0,0,0,.01,1.03,1.48,3.44.44,8.38-.22,2.09-4.61-1.54-9.55,1.18-13.71,3.42-.32,9.35-2.36,10.95,1.15.36,2.03,1.29,3.57,2.35,5.03.63.87,1.31,1.71,1.92,2.6,4.19,6.04,6.4,6.74,14.16,4.77-3.74-6.5-9.43-11.66-12.62-18.43,6.79-4.49,11.15-11.99,12.92-20.18,1.49-6.89,1.15-14.28-1.09-20.79-2.2-6.4-6.24-11.95-12.21-15.35ZM348.61,218.39c-2.14.76-4.52,1.17-7.14,1.14-1.16-3.1-.88-8.69-.54-14.55.35-6.12.76-12.54-.3-16.76-.59-2.31-1.63-3.97-3.37-4.56.93-1.5,2.48-.52,3.74-1.85v-9.94c2.75-.17,5.23.12,7.44.77.37.11.73.22,1.08.35.11.04.22.09.33.13.24.09.48.18.71.29,8.03,3.5,12.01,12.29,12.11,21.26.11,10.06-4.64,20.35-14.07,23.72Z"/>
      <path class="cls-1" d="M93.35,164.17c-.06-.01-.12-.04-.18-.05-.33-.09-.67-.21-1.02-.37-.59-.28-1.14-.46-1.64-.53-.17-.03-.33-.04-.49-.05-.21,0-.42,0-.61.04-.16.02-.31.06-.46.11-.29.09-.57.23-.82.41-1.01.72-1.69,2.12-2.05,4-4.76,24.76-9.28,49.56-13.6,74.4.39.11.75.21,1.11.29.19.05.38.09.56.13,4.55.97,6.55-.27,7.96-2.59,1.32-2.15,2.14-5.23,4.05-8.33.26-.58.66-1.2,1.17-1.85,1.52-1.94,4.01-4.04,6.58-5.37,1.91-.99,3.86-1.55,5.49-1.29,1.58.25,2.85,1.27,3.45,3.42.61,1.84.94,6.56,1.66,10.4.45,2.41,1.06,4.47,1.99,5.25.04.04.09.07.13.1.02.01.04.03.06.04.12.08.25.14.39.17,0,0,0,0,0,0,1.51.07,3.06.43,4.61.39,0,0,.02,0,.03,0,.51-.01,1.01-.07,1.52-.2.68-.17,1.37-.47,2.04-.95-4.83-25.9-9.67-51.79-14.46-77.48-2.53-.91-4.75.54-7.47-.11ZM86.7,216.14c2.28-12.71,4.42-24.67,6.66-37.2,3.17,4.17.16,10.42,5.66,13.23-.91,1.03-1.27,2.46-1.31,4.12-.05,2.29.52,5.03,1.14,7.78.73,3.25,1.54,6.5,1.47,9.04-4.85-.54-9.06.71-13.61,3.04Z"/>
      <path class="cls-1" d="M214.43,197.15c-.36-2.08-.89-3.33-4.15-3.61,2.98-2.03,2.9-5.91,1.97-10.25-.23-1.06-.51-2.14-.8-3.24-1.27-4.67-2.89-9.46-2.38-12.8.07-2.73-1.37-3.59-3.31-3.8-2.34-.26-5.41.39-7.49-.19-.04-.01-.09-.02-.14-.03-1.42-.19-2.47-.02-3.22.55-.19.14-.35.31-.5.51-.3.39-.52.88-.68,1.48-.08.3-.14.63-.19.98-1.02,7.74-2.43,15.45-3.96,23.08-3.04,15.17-5.46,30.44-8.52,45.6-.44,2.2-1.63,4.52-.36,7.16,2.08-.09,4.32.28,6.14-.05.63-.12,1.2-.32,1.7-.65.93-.61,1.6-1.67,1.88-3.48.49-2.68,2.37-6.23,4.9-9.23,2.26-2.67,5.03-4.89,7.79-5.69,2.41-.69,4.8-.31,6.84,1.84,1.31,2.36,1.47,5.8,1.77,9.01.28,2.94.68,5.69,2.21,7.22,1.07,1.07,2.68,1.55,5.19,1.09,2.21-.03,2.99-.79,3.1-2.07.05-.58-.03-1.27-.17-2.04-2.6-13.78-5.24-27.56-7.63-41.38ZM194.17,215.76c2.37-12.93,4.66-25.39,6.95-37.86,1.16,4.81.27,10.04,6.4,11.92-1.04,1.64-2.34.18-3.58.87,1.3,7.39,2.61,14.83,4.14,23.54-5.43-3.17-9.05,1.2-13.9,1.54Z"/>
      <path class="cls-1" d="M290.14,230.68c.6-.87,1.23-1.69,1.89-2.44,1.26-1.42,2.65-2.6,4.22-3.46.25-.14.51-.27.77-.39.11-.05.22-.11.33-.15,1.74-.74,3.7-1.11,5.94-1.01,0,0,0,0,0,0,1.19.07,2,.73,2.56,1.75,0,0,0,0,0,0,.14.25.26.52.37.81,0,.02.01.03.02.05.1.27.19.56.27.85.01.04.02.08.03.12.07.28.14.57.2.87.01.06.02.12.04.19.06.29.11.59.15.89.01.07.02.14.03.2.05.32.09.64.13.96,0,.04,0,.08.01.12.1.85.18,1.71.27,2.54.01.13.03.27.04.4.02.19.04.38.07.57.03.22.06.44.09.65.02.11.03.22.05.33.04.25.08.5.13.74.01.06.02.13.04.19.05.26.12.51.18.75,0,.03.02.06.03.09.07.25.16.48.25.69,0,.01,0,.02.01.03.75,4.09,1.16,5.47,3.3,5.76.97.13,2.31.04,4.19-.13,1.72-.15,2.54-.97,2.49-2.39-.06-1.4.19-3.49-2.41-3.06-.16.25-.36.35-.52.35,0,0,0,0-.01,0-.27,0-.41-.3-.03-.71.15-.74.38-1.98-.09-3.27-.32-.9-.97-1.82-2.22-2.62.66-.1,1.19-.25,1.61-.44.28-.13.51-.27.7-.44.1-.08.18-.17.26-.26.76-.9.57-2.2.29-3.64-4.32-20.93-7.1-41.72-11.93-62.64-2.36.52-5.83-.26-8.79-.26-2.36,0-4.39.5-5.28,2.55-.13.31-.24.65-.32,1.03-1.54,8.49-3.11,16.98-4.62,25.47-1.89,10.61-3.69,21.25-5.22,31.9.01.12.01.24.01.38,0,0,0,.02,0,.03,0,.02,0,.04,0,.05-.02,1.01-.32,2.36-.74,3.88-1.06,3.86-2.85,8.76-2.45,11.58.13.94.51,1.65,1.24,2.01.05.02.1.05.15.07,1.91.87,4.58.81,6.33-.08,1.02-.52,1.72-1.31,1.78-2.36.05-.82-.29-1.79-1.18-2.91,3.5-.74,3.79-4,5.31-6.21ZM296.67,180.58c.44-.03.89-.06,1.33-.09,1.97,10.65,3.95,21.29,6.03,32.52-1.27-.32-2.25.08-3.17.46-.23.1-.46.19-.69.27-.34.12-.67.21-1.02.23-.35.02-.71-.02-1.09-.16,0,0,0,0,0,0,.04-.1.08-.19.12-.29-.06.09-.11.18-.17.27,0,0,.04.04.04.04-2.56-.14-4.86.37-6.94,2.62.37-12.18,3.2-23.99,5.56-35.87Z"/>
      <path class="cls-1" d="M446.32,208.54c.04-.24.04-.51,0-.79-.08-.83-.39-1.8-.55-2.72-1.19-5.13-2.16-10.27-3.05-15.43-.3-1.72-.58-3.44-.87-5.17-1.13-6.91-2.2-13.86-3.55-20.88-3.43,0-6.07.04-8.71,0-5.67-.11-5.55-.11-6.52,5.31-4.37,24.46-8.81,48.85-13.3,73.29,3.4,1.13,6.31-.41,9.39.3,2.08-8.41,6.72-18.15,16.22-19.15.26-.03.5-.07.76-.09,1.59-.02,2.69.69,3.47,1.83,1.19,1.74,1.63,4.49,1.94,7.19.28,2.44.45,4.83.95,6.44.02.06.03.12.05.18.14,1.1-.05,2.8,1.11,3.42.27.14.61.23,1.04.24,2.54.05,5.19.63,8.21-.64-4.23-10.07-3.56-20.94-6.23-30.66-1.41-1-2.47.78-3.62-1.08,2.3.04,3.08-.61,3.23-1.59ZM436.29,213.34c-.54,0-1.05.03-1.52.08-1.53.18-2.8.65-4.03,1.1-.5.18-.99.36-1.5.52-.07.02-.14.04-.21.06-.44.13-.89.25-1.36.33-1.09.19-2.29.21-3.74-.1,2.25-11.87,4.55-23.98,6.85-36.09.27,0,.55,0,.82,0,2.1,11.21,4.2,22.41,6.42,34.23-.62-.09-1.19-.13-1.73-.13Z"/>
      <path class="cls-1" d="M264.37,164.76c.03-.3.06-.57.12-.78-36.37-8-40.2,39.96-31.01,64.31,1.9,5.69,5.6,9.85,10.67,12.2,2.31,1.07,4.9,1.76,7.74,2.05,4,.41,7.93-1.51,11.85.05,1.01-3.46,1.31-5.68.86-7.09,0-.02-.01-.03-.02-.05-.76-2.31-3.56-2.46-8.59-2.5-5.86.17-10.16-3.53-12.98-9.15-5.45-10.86-5.35-28.9-.19-40.07,2.61-5.65,6.51-9.53,11.64-9.85.35,1.45.48,2.73.52,3.84.08,2.04-.13,3.51.27,4.47.02.06.05.11.08.17.01.03.03.06.04.08.26.44.69.75,1.4.94,1.09.3,2.85.32,5.69.08.11,0,.22,0,.32-.02,1.55-.25,1.95-3.14,1.95-6.66,0-4.29-.59-9.52-.38-12.01,0,0,0-.01,0-.02Z"/>
      <path class="cls-1" d="M53.39,178.67c.15-1.77.32-3.53.53-5.29,4.53-.88,9.36.38,14.14-.9,0-2.97,1.36-6.22-.72-8.46-1.89-2.04-2.56,1.75-4.31,2.02-1.28-.72-1.49-2.59-3.59-2.56-2.25.04-4.5.07-6.75.08-3.38.02-6.75.02-10.13,0-3.38,0-6.75-.02-10.13-.02-.1-.02-.18-.02-.27-.03-.46-.07-.87-.07-1.21.02-1.63.44-1.92,2.61-1.76,4.9.11,1.69.47,3.45.7,4.63h13.86c-.01,22.14.14,43.88-.07,65.97-.04,4.13,2.07,3.99,4.94,4.02.56,0,1.08,0,1.56-.03.13,0,.26-.02.38-.03.25-.03.48-.07.7-.12,1.43-.35,2.26-1.32,2.19-3.97.37-13.56-.55-27.28-.67-40.88-.01-1.44-.02-2.88,0-4.32.02-3.17.1-6.33.26-9.48.09-1.86.21-3.71.37-5.56Z"/>
      <path class="cls-1" d="M386.84,242.56c3.24-.21,6.2.49,7.92-.34.59-.28,1.04-.74,1.3-1.49.28-.81.34-1.96.12-3.58,0-15.07,0-30.33,0-45.53,0-9.12,0-18.22,0-27.24-3.53-2.25-6.34.7-9.5,0,0,20.34.03,40.62-.05,60.91,0,1.81.65,2.76,1.74,3-3.04,4.62-1.27,9.37-1.54,14.26Z"/>
      <path class="cls-4" d="M254.24,262.35c-1.08,1.14-.72,4.07-4.18,3.02,1.58-8.36-.27-15.7-8.28-21.22-.12,1.38-.38,2.66-.75,3.86-.05.17-.11.33-.17.49-.21.62-.44,1.22-.71,1.81-.15.33-.32.66-.48.98-.02.03-.03.07-.05.1-.12.23-.26.46-.39.69-.07.12-.13.24-.2.36-.02.04-.05.07-.07.11-1.84,3.06-4.32,5.73-6.75,8.69-3.31,3.88-5.49,10.08-4.73,15.19.08.52.18,1.03.32,1.52.5,1.78,1.43,3.37,2.86,4.59,1.19-.05,2.37-.13,3.4-.8.72-1.69,1.45-3.38,2.18-5.07,1.06-1.17-.38-4.14,2.74-3.82,1.16-1.92,1.02-4.77,3.4-6,.34-.18.73-.32,1.19-.42,3.18,7,10.3,12.09,8.06,21.74,8.88-6.85,10.41-19.08,2.61-25.81Z"/>
      <path class="cls-2" d="M94.35,301.91c.03-3.02-1.43-2.85-3.41-1.99-.48,3.15.32,6.2-.48,9.06h-8.83c-.26-1.08-.04-2.87.09-4.6.15-2.03.17-3.98-.86-4.65-.01,0-.03-.01-.04-.02-.06-.04-.13-.08-.2-.11-.53-.21-1.28-.15-2.34.3v22.77c6.26-1.81,1.44-7.27,3.99-9.91h8.51v9.19c2.32.59,3.65.52,3.59-2.17-.13-5.95-.08-11.91-.02-17.87Z"/>
      <path class="cls-2" d="M272.12,316.4s0,0,0,0c-.97.61-1.89,1.08-2.76,1.43-2.1.84-3.92.96-5.45.59-.1-.02-.2-.05-.3-.08-.06-.02-.13-.03-.19-.05-2.98-.97-4.7-3.89-4.96-6.91,0-.05-.01-.1-.01-.15,0,0,0-.01,0-.02-.2-3.08,1.13-6.23,4.22-7.52,1.96-.82,4.62-.9,8.05.25,0,0,0,0,0,0,1.27-4.29-2.66-5.11-6.74-4.18-3.39.77-6.89,2.75-7.6,4.98-2.32,4.01-2.33,7.51-1.08,10.32,1.69,3.82,5.71,6.35,9.41,7.12.04,0,.09.02.13.03.08.01.15.02.22.03,2.63.47,5.07.04,6.33-1.49.81-.98,1.14-2.41.73-4.34Z"/>
      <path class="cls-2" d="M158.19,310.91c-.75-1.11-2.2-2.09-3.43-3.16-1.33-1.15-2.39-2.4-1.98-4.01.27-.45.61-.76,1-.92.19-.08.4-.13.61-.15.21-.01.43,0,.65.05.29.07.59.19.88.37,2.01,1.22,2.65-.34,3.72-1.38-.21-.2-.42-.39-.64-.57-.86-.7-1.73-1.18-2.59-1.48-.86-.3-1.7-.41-2.48-.36-.39.02-.78.08-1.14.18-.36.1-.71.23-1.04.39-.47.23-.89.53-1.26.88-.02.02-.04.03-.05.04-.22.21-.41.44-.59.69-.04.05-.08.11-.11.16-.12.19-.23.39-.32.59-.95,2.02-.54,4.78,2.31,7.3.73,1.13,2.26,2.14,3.53,3.22.84.72,1.57,1.47,1.88,2.31.06.17.11.34.13.52,0,0,0,.02,0,.02.06.46-.02.95-.26,1.48-.05.11-.09.22-.15.34-.43.51-.84.84-1.23,1.04-1.11.57-2.08.09-3.05-.42-1-.52-1.99-1.07-3.12-.5-.48.24-.98.69-1.52,1.44,2.87,3.91,7.6,3.82,10.54,1.78,2.93-2.04,4.06-6.02-.28-9.87Z"/>
      <path class="cls-2" d="M359.31,307.6c-.39-1.12-1.08-1.58-2.26-.93v9.63c-3.46-3.72-6.36-6.84-9.7-10.43v16.35c3.65-.16,2.13-4.33,2.29-7.58.04-.75.16-1.45.46-2.04,3.11,3.33,6.03,6.45,9.42,10.09-.26-1.03-.15-3.18,0-5.58.21-3.49.48-7.52-.2-9.51Z"/>
      <path class="cls-2" d="M308.25,313.74c-.06.77-.21,1.5-.54,2.12-3.19-3.39-6-6.4-9.03-9.63-1.26,9.29-.68,14.99,1.94,15.92v-10.12c3.76,4.05,6.71,7.22,10.04,10.8v-16.45c-3.72-.19-2.16,4-2.41,7.36Z"/>
      <path class="cls-2" d="M292.85,311.08c-.04-.12-.08-.24-.13-.35-.05-.12-.12-.24-.18-.36-.05-.1-.09-.2-.15-.3-.11-.2-.23-.39-.36-.58,0-.01-.02-.03-.03-.04-.39-.57-.86-1.09-1.41-1.53-.03-.03-.07-.06-.1-.09-.12-.09-.25-.17-.38-.26-.08-.06-.16-.12-.25-.17-.08-.05-.16-.08-.24-.13-.15-.08-.29-.17-.45-.24-.02,0-.04-.02-.06-.02-.22-.1-.45-.19-.69-.27-.11-.04-.23-.06-.34-.09-.42-.12-.87-.22-1.34-.27-.11-.01-.23-.01-.34-.02-.2-.01-.39-.03-.6-.04h0s-.05,0-.07,0c-.3-.01-.59-.01-.88,0-.09,0-.17.02-.26.03-.21.02-.43.04-.63.07-.15.03-.29.07-.44.1-.13.03-.27.05-.39.09-.09.03-.18.06-.27.09-.17.06-.34.11-.5.18-.04.02-.09.04-.13.06-.2.09-.39.18-.58.28-.09.05-.17.11-.26.16-.13.08-.27.16-.39.25-.08.06-.15.12-.23.18-.12.1-.25.19-.36.29-.1.09-.19.19-.29.29-.08.08-.16.16-.24.24-.11.12-.21.25-.31.38-.05.07-.11.13-.16.2-.11.15-.21.31-.3.47-.03.05-.07.1-.1.16-2.75,4.74-.58,12.53,6.62,12.41,6.37.05,8.86-6.15,7.32-10.83-.04-.11-.09-.23-.13-.34ZM285.72,319.75c-6.98.17-7.32-10.68-.38-11.03,2.81-.25,4.61,1.54,5.27,3.75.04.12.06.24.09.37.01.05.03.1.04.15.66,3.13-.9,6.82-5.02,6.77Z"/>
      <path class="cls-2" d="M175.12,312.94h-5.35q-.83-6.12-2.97-6.35c.18.92.14,2.49.05,4.3-.15,3.15-.46,7.01-.02,9.34,0,.05.02.09.03.14.02.09.04.19.06.28.17.67.42,1.17.77,1.44,0,0,0,0,0,0,.03.02.06.03.08.05.05.03.09.06.15.09,0,0,0,0,0,0,3.09-.38.27-4.94,2.14-7.01,1.7.27,3.53-.47,5.54.52.1,2.02.2,4.09.32,6.53,2.58-1.07,3.28-9.66,1.62-16.16-3.5,1.46-.41,5.19-2.42,6.84Z"/>
      <path class="cls-2" d="M139.03,306.91c-.2-.09-.42-.16-.64-.24-.11-.04-.21-.09-.32-.12-1.69-.51-3.75-.58-6.2,0v15.64c2.95.6,5.35.3,7.19-.57,3.03-1.42,4.55-4.37,4.58-7.32,0-.03,0-.07,0-.1,0-.11-.01-.22-.02-.33-.11-2.87-1.64-5.66-4.6-6.96ZM138.21,319.12s-.06.02-.09.03c-.16.07-.33.14-.51.2-.24.08-.49.14-.75.19-.65.12-1.36.17-2.15.1-.8-3.44-.1-6.94-.45-10.72,1.06-.14,1.99-.09,2.81.11,2.78.67,4.17,3.04,4.12,5.39-.04,1.92-1.02,3.81-2.99,4.71Z"/>
      <path class="cls-2" d="M187.78,307.02s-.09.04-.13.05c-.19.07-.38.14-.56.23-.18.08-.35.18-.53.27-.04.02-.09.04-.13.07-.14.08-.28.18-.42.27-.07.05-.14.09-.21.13-.14.1-.28.22-.42.33-.05.05-.11.08-.17.13-.16.14-.31.29-.46.45-.02.03-.05.05-.07.07-.31.33-.58.7-.82,1.1-.03.04-.06.08-.08.12-.07.13-.14.27-.2.41-.05.1-.1.19-.15.29-.05.11-.09.24-.13.36-.05.13-.11.26-.15.4-.04.15-.08.3-.11.46-.03.12-.06.24-.09.36-.03.19-.05.38-.08.58-.01.1-.03.19-.04.3-.02.21-.02.43-.02.66,0,.09,0,.18,0,.28h0c0,.28.01.56.03.82,0,.04,0,.08,0,.12.03.27.07.54.12.79,0,.03,0,.06.01.09.04.22.1.42.16.62.02.06.03.13.05.2.07.22.16.43.24.64.02.04.03.08.04.12.09.21.2.41.31.61.02.03.03.06.05.09.08.14.18.28.28.41.05.07.1.15.15.23.1.13.2.24.3.36.06.07.12.15.18.22.09.09.18.17.27.26.09.08.17.17.27.25.06.05.12.09.18.13.14.11.27.22.41.32.07.05.14.08.21.13.14.09.28.18.42.26.12.06.24.12.36.18.1.05.2.11.31.15.16.07.32.13.48.19.07.03.14.06.22.08.22.07.44.14.67.19.02,0,.03,0,.05.01.3.07.61.13.92.17,4.4.6,9.33-1.99,9.2-7.75.09-6.51-6.23-8.86-10.92-7.19ZM190.7,319.75c-4.36.1-5.99-4.2-4.93-7.46.02-.06.04-.12.07-.18.09-.26.2-.52.33-.77.03-.05.06-.1.09-.15.06-.1.11-.19.17-.29.08-.11.16-.22.24-.33.02-.03.04-.05.06-.08.07-.08.14-.16.22-.24.04-.05.08-.09.12-.14.04-.04.1-.08.14-.13.08-.07.15-.15.24-.21.05-.04.1-.07.15-.11.09-.07.18-.13.27-.19.06-.04.12-.06.17-.1.25-.14.51-.27.79-.37.05-.02.11-.03.17-.05.3-.09.62-.17.96-.21,0,0,0,0,0,0,.2-.02.4-.04.61-.04h0c.08,0,.15,0,.23,0,.14,0,.28,0,.41,0,.09,0,.18.02.27.03.11.01.23.02.34.04.06.01.11.03.16.04.14.03.27.06.4.1.03,0,.05.02.08.03.33.11.64.24.93.41.03.02.06.04.09.06.22.13.43.28.62.45.38.33.71.71.98,1.13.13.21.26.43.36.66.04.08.06.15.1.23.03.08.07.17.1.25.03.09.06.18.09.27.02.08.05.15.07.23.86,3.21-.78,7.2-5.11,7.09Z"/>
      <path class="cls-2" d="M396.65,306.26v10.16c-3.63-3.86-6.58-7.01-10.18-10.84.21.92.14,2.89.02,5.15-.17,3.38-.43,7.43.03,9.72.03.15.07.3.11.44,0,.02,0,.03.01.05.4,1.37,1.16,1.83,2.55.59v-9.23c3.51,3.72,6.42,6.8,9.68,10.26.87-13.87.7-15.3-2.23-16.29Z"/>
      <path class="cls-2" d="M103.57,319.48c-.3-1.36-.34-2.75.08-4.15,1.74-.88,3.73.32,5.51-.91-1.01-3.07-3.96-.7-5.62-2.08-.55-1.79-.4-2.7.14-3.18.43-.38,1.11-.48,1.89-.52,1.31-.07,2.92.02,4.12-.71.41-.25.77-.59,1.06-1.06-3.42-1.07-6.5-.47-9.74-.47v15.78c3.3-.08,6.47.54,10.1-.57-2.51-2.94-5.36-.87-7.55-2.13Z"/>
      <path class="cls-2" d="M343.3,307.1c-3.75-1.35-6.92-.64-10.13-.73v15.95c3.27-.34,6.27.38,9.69-.58-1.87-3.41-5.24-.79-7.41-2.33,0-1.42-.54-2.95.3-4.27,1.89-.43,3.76.32,5.63-.68-1.39-3.1-4.34-.59-5.92-2.24-.02-1.19-.59-2.49.33-3.52,2.3-.62,4.77.65,7.52-1.62Z"/>
      <path class="cls-2" d="M231.43,319.31v-3.82c1.87-1.25,4.3.47,6.08-1.41-1.64-2.5-4.46-.26-5.99-1.77v-3.33c2.25-1.26,5.29.81,7.39-2.34-3.74-.53-6.8-.45-9.93-.17v15.58h10.15c-2.25-3.64-5.84-.98-7.7-2.75Z"/>
      <path class="cls-2" d="M382.3,306.92c-3.6-1.04-6.72-.62-9.82-.4v15.65c3.26,0,6.25.46,9.73-.38-1.91-3.46-5.36-.73-7.39-2.44v-3.91c2.13-.94,4.26.21,6.13-1.1-1.52-2.93-4.45-.44-6.02-2.07v-3.26c2.22-1.29,5.08.76,7.37-2.09Z"/>
      <path class="cls-2" d="M114.18,321.87c3.57,1.49,3.4-3.18,6.69-3.4,3.6-.24,3.21,5.15,6.85,3.29-2.24-5.31-4.41-10.42-6.83-16.14-2.45,5.93-4.55,11.03-6.71,16.26ZM122.61,316.12c-1.02.73-1.99.54-3.35.14.49-1.37.88-2.46,1.3-3.64,1.65.69,1.41,2.32,2.05,3.5Z"/>
      <path class="cls-2" d="M427.09,321.83c3.65,1.65,3.44-3.16,6.73-3.33,3.61-.19,3.14,4.96,6.83,3.36-2.19-5.25-4.33-10.42-6.76-16.25-2.43,5.79-4.6,10.95-6.8,16.21ZM435.38,316.19c-.95.64-1.94.48-3.04.11.04-1.43.54-2.64,1.59-3.65.89,1.02,1.4,2.18,1.45,3.54Z"/>
      <path class="cls-2" d="M410.36,319.74c-2.3-.39-3.7-2.43-4.02-4.65-.01-.08-.03-.16-.04-.24,0,0,0-.01,0-.02-.22-2.07.5-4.25,2.3-5.35.15-.09.32-.17.49-.25.05-.02.1-.05.15-.08,1.37-.57,3.23-.6,5.62.27,0-.78-.15-1.41-.42-1.9,0,0,0-.01-.01-.02-.09-.16-.18-.3-.29-.43-.97-1.17-2.81-1.22-4.7-.51-.07.03-.14.05-.21.07-.02,0-.04.02-.05.02-2.38.98-4.77,3.14-5.57,5.81-.56,1.87-.31,4,1.26,6.14.07.1.13.19.21.29.02.04.05.09.07.13,1.04,1.98,4.35,3.34,7.01,3.29,1.92-.03,3.51-.8,3.66-2.59.04-.45-.02-.96-.17-1.54-2.09,1.39-3.87,1.79-5.3,1.55Z"/>
      <path class="cls-2" d="M321.84,315.72c-2.64-2.83-1.95-8.03-7.38-9.98,2.68,6.11,4.91,11.17,7.56,17.2,2.47-5.99,4.57-11.05,6.66-16.12-.36-.23-.73-.46-1.09-.69-3.93,1.71-2.76,7.16-5.75,9.59Z"/>
      <path class="cls-2" d="M207.49,306.29c-.15-.01-.32-.01-.48-.02-.15,0-.29-.02-.44-.02-.94,0-1.97.1-3.08.33-1.08,11.81-.6,15.22,2.13,15.26.1-1.56.21-3.12.31-4.63,1.11-.14,2.09-.36,2.95-.65,3.85-1.31,5.28-4.01,4.65-6.31-.54-2-2.62-3.7-6.04-3.96ZM209.08,314.51c-.81.26-1.85.23-3.14-.26v-5.41c1.29-.48,2.34-.49,3.15-.22,1.39.47,2.06,1.8,2,3.09-.05,1.2-.72,2.38-2.01,2.8Z"/>
      <path class="cls-2" d="M420.77,306.64c-.88,10.71-.45,14.61,1.98,15.53,1.09-11.31.56-15.28-1.98-15.53Z"/>
      <path class="cls-2" d="M366.01,306.35s0,0,0,0c0,0,0,0-.01,0-.54.04-.87.66-1.06,1.64-.36,1.84-.24,4.94-.1,7.81h0s0,0,0,0c.13,2.64.27,5.08.05,6.14.56.17.98.22,1.31.19.98-.1,1.07-.98,1.06-1.96-.02-.09-.04-.2-.06-.32-.15-1.1-.01-3.14.1-5.3.12-2.32.22-4.78-.07-6.39-.2-1.08-.56-1.78-1.22-1.8Z"/>
      <path class="cls-4" d="M236.33,289.26c-.31-.9-.58-1.69-.83-2.44-.27-.84-.51-1.62-.74-2.43-.24-.83-.46-1.68-.71-2.65-1.03.67-2.21.75-3.4.8.88,2.83,2.6,4.94,5.67,6.72Z"/>
      <path class="cls-4" d="M236.24,276.66c.89.66,1.68,1.59,3.05,1.08.03-.21.06-.42.09-.63.18-1.45.23-2.88-.39-4.28-3.12-.32-1.68,2.65-2.74,3.82Z"/>
      <path class="cls-2" d="M231.25,96.04c-.04.14,0,.31.05.5.01.06.03.12.04.19.69-.16.3-1.45-.09-.69Z"/>
      <path class="cls-2" d="M176.78,76.73c-.08-.02-.16-.05-.23-.04-.34,0-.57.24-.76.57.19.15.38.29.58.43.14-.32.28-.64.42-.96Z"/>
      <path class="cls-2" d="M141.28,136.29c1.78.21,3.25-.38,4.47-1.66-1.33-1.73-3.08-1.23-4.69-1.27.3.93-.61,1.96.22,2.93Z"/>
      <path class="cls-2" d="M140.88,133.37c.06,0,.12,0,.18,0-.02-.05-.02-.09-.04-.14,0,0-.14.14-.14.14Z"/>
    </g>
  </g>
</svg>